<?xml version="1.0" encoding="UTF-8"?><svg id="Capa_2" xmlns="http://www.w3.org/2000/svg" viewBox="0 0 102.273 108.311"><g id="Capa_1-2"><path d="M91.068,54.343L97.254,0h-28.361L7.616,58.726c-4.318,4.132-6.769,8.89-7.47,14.4-1.284,10.643,6.069,19.658,15.991,19.658h24.744c2.683,9.141,10.27,15.527,20.075,15.527,9.92,0,19.375-6.637,24.043-15.902,8.521-1.753,16.106-9.892,17.157-19.283.934-8.515-3.851-16.404-11.088-18.783ZM96.32,73.126c-.817,7.262-7.236,13.398-14.006,13.398h-1.049c-2.802,8.765-10.971,15.527-19.609,15.527s-15.172-6.761-15.757-15.527h-28.946c-6.77,0-11.788-6.136-10.971-13.398.467-4.007,2.335-7.013,5.252-9.892L70.761,6.26h19.958l-6.069,53.467h.7c6.77,0,11.788,6.136,10.971,13.399Z"/><path d="M84.649,65.988h-6.536l6.069-53.467h-11.788L14.853,67.616c-1.635,1.628-2.802,3.255-3.035,5.51-.467,3.881,2.218,7.137,5.835,7.137h34.432l-.35,2.505c-.817,7.137,4.086,13.022,10.737,13.022s12.839-5.885,13.656-13.022l.35-2.505h6.537c3.617,0,7.003-3.255,7.47-7.137.467-3.882-2.218-7.137-5.836-7.137ZM63.989,42.635c.387-1.371,1.811-2.482,3.182-2.482s2.169,1.111,1.782,2.482c-.387,1.371-1.811,2.482-3.182,2.482s-2.169-1.111-1.782-2.482ZM57.333,42.635c.387-1.371,1.811-2.482,3.182-2.482s2.169,1.111,1.782,2.482c-.387,1.371-1.811,2.482-3.182,2.482s-2.169-1.111-1.782-2.482ZM58.641,46.809c1.371,0,2.169,1.111,1.782,2.482-.387,1.371-1.811,2.482-3.182,2.482s-2.169-1.111-1.782-2.482c.387-1.371,1.811-2.482,3.182-2.482ZM50.677,42.635c.387-1.371,1.811-2.482,3.182-2.482s2.168,1.111,1.782,2.482c-.387,1.371-1.811,2.482-3.182,2.482s-2.169-1.111-1.782-2.482ZM42.136,49.291c.387-1.371,1.811-2.482,3.182-2.482s2.169,1.111,1.782,2.482c-.387,1.371-1.811,2.482-3.182,2.482s-2.169-1.111-1.782-2.482ZM50.104,53.465c1.371,0,2.169,1.111,1.782,2.482-.387,1.371-1.811,2.482-3.182,2.482s-2.169-1.111-1.782-2.482c.387-1.371,1.811-2.482,3.182-2.482ZM40.262,55.947c.387-1.371,1.811-2.482,3.182-2.482s2.169,1.111,1.782,2.482c-.387,1.371-1.811,2.482-3.182,2.482s-2.169-1.111-1.782-2.482ZM40.163,65.085c-1.371,0-2.169-1.111-1.782-2.482.387-1.371,1.811-2.482,3.182-2.482s2.169,1.111,1.782,2.482c-.387,1.371-1.811,2.482-3.182,2.482ZM48.135,69.259c-.387,1.371-1.811,2.482-3.182,2.482s-2.169-1.111-1.782-2.482c.387-1.371,1.811-2.482,3.182-2.482s2.169,1.111,1.782,2.482ZM54.791,69.259c-.387,1.371-1.811,2.482-3.182,2.482s-2.168-1.111-1.782-2.482c.387-1.371,1.811-2.482,3.182-2.482s2.169,1.111,1.782,2.482ZM53.486,65.085c-1.371,0-2.169-1.111-1.782-2.482.387-1.371,1.811-2.482,3.182-2.482s2.169,1.111,1.782,2.482c-.387,1.371-1.811,2.482-3.182,2.482ZM61.447,69.259c-.387,1.371-1.811,2.482-3.182,2.482s-2.169-1.111-1.782-2.482c.387-1.371,1.811-2.482,3.182-2.482s2.169,1.111,1.782,2.482ZM59.406,64.97c-.851-.28-1.274-1.112-1.111-2.078.015-.091.035-.182.072-.271.223-.548.225-1.099-.056-1.49l-1.161-1.616c-.026-.036-.052-.071-.08-.105-.849-1.056-2.662-1.011-4.08.083-.007.006-.015.011-.022.017l-1.278.997c-.813.634-1.424,1.472-1.769,2.363-.003.009-.007.018-.011.027-.463,1.165-1.685,2.088-2.88,2.18-1.808.138-2.74-1.579-1.548-3.411.539-.828,1.459-1.405,2.367-1.518.106-.013.21-.025.307-.02.609.037,1.275-.159,1.837-.598l1.912-1.491c.046-.036.091-.072.136-.11,1.377-1.145,1.84-2.943,1.059-4.052-.004-.006-.009-.013-.013-.019l-.735-1.024c-.446-.621-1.166-.988-2.017-1.073-.01-.001-.021-.002-.031-.003-.942-.108-1.593-.773-1.605-1.711-.027-2.048,2.452-3.877,4.273-3.021.67.315.991,1.026.878,1.839-.012.087-.025.173-.044.258-.177.786-.07,1.532.33,2.088l.84,1.17c.004.006.008.011.012.017.801,1.096,2.592,1.14,4.038.084.047-.034.093-.069.139-.105l1.269-.99c.812-.634,1.424-1.472,1.768-2.363l.011-.027c.463-1.165,1.685-2.088,2.88-2.18,1.562-.12,2.471,1.146,1.92,2.674-.421,1.169-1.616,2.131-2.819,2.265-.009.001-.019.002-.028.003-.917.093-1.861.468-2.673,1.102l-1.273.993c-.008.006-.016.013-.024.019-1.409,1.111-1.962,2.913-1.229,4.061.024.037.048.074.074.11l1.159,1.614c.274.381.765.537,1.316.48.074-.008.147-.014.217-.008.984.075,1.667.733,1.69,1.693.047,1.965-2.222,3.739-4.019,3.148ZM62.016,58.429c-1.371,0-2.169-1.111-1.782-2.482.387-1.371,1.811-2.482,3.182-2.482s2.168,1.111,1.782,2.482c-.387,1.371-1.811,2.482-3.182,2.482ZM69.98,62.603c-.387,1.371-1.811,2.482-3.182,2.482s-2.169-1.111-1.782-2.482c.387-1.371,1.811-2.482,3.182-2.482s2.169,1.111,1.782,2.482ZM71.862,55.947c-.387,1.371-1.811,2.482-3.182,2.482s-2.168-1.111-1.782-2.482c.387-1.371,1.811-2.482,3.182-2.482s2.169,1.111,1.782,2.482ZM73.735,49.291c-.387,1.371-1.811,2.482-3.182,2.482s-2.169-1.111-1.782-2.482c.387-1.371,1.811-2.482,3.182-2.482s2.169,1.111,1.782,2.482Z"/></g></svg>