<?xml version="1.0" encoding="UTF-8"?><svg id="Capa_2" xmlns="http://www.w3.org/2000/svg" viewBox="0 0 224.967 224.967"><g id="Capa_1-2"><path d="M216.125,68.698c-5.666-13.395-13.775-25.424-24.104-35.752-10.328-10.328-22.357-18.438-35.752-24.104C142.397,2.975,127.666,0,112.483,0s-29.914,2.975-43.785,8.842c-13.395,5.666-25.424,13.775-35.752,24.104-10.328,10.328-18.438,22.357-24.104,35.752C2.975,82.569,0,97.301,0,112.483s2.975,29.914,8.842,43.785c5.666,13.395,13.775,25.424,24.104,35.752,10.328,10.328,22.357,18.438,35.752,24.104,13.871,5.867,28.603,8.842,43.785,8.842s29.914-2.975,43.785-8.842c13.395-5.666,25.424-13.775,35.752-24.104,10.328-10.328,18.438-22.357,24.104-35.752,5.867-13.871,8.842-28.603,8.842-43.785s-2.975-29.914-8.842-43.785ZM213.111,154.994c-5.501,13.005-13.375,24.684-23.404,34.713-10.029,10.029-21.708,17.903-34.713,23.404-13.466,5.696-27.768,8.583-42.511,8.583s-29.045-2.888-42.511-8.583c-13.005-5.501-24.684-13.375-34.713-23.404-10.029-10.029-17.903-21.708-23.404-34.713-5.696-13.466-8.583-27.768-8.583-42.511s2.888-29.045,8.583-42.511c5.501-13.005,13.375-24.684,23.404-34.713,10.029-10.029,21.708-17.903,34.713-23.404,13.466-5.696,27.768-8.583,42.511-8.583s29.045,2.888,42.511,8.583c13.005,5.501,24.684,13.375,34.713,23.404,10.029,10.029,17.903,21.708,23.404,34.713,5.696,13.466,8.583,27.768,8.583,42.511s-2.888,29.045-8.583,42.511Z"/><path d="M67.996,43.299c-.93-.748-1.925-1.584-2.986-2.506-.685-.595-1.41-1.234-2.166-1.907.351.956.685,1.868.996,2.725.481,1.323.893,2.541,1.238,3.654l.484,1.662,3.811-2.567-1.376-1.061Z"/><path d="M67.086,179.504c-.578-.392-1.183-.593-1.814-.604-.632-.01-1.256.18-1.874.572-.618.392-1.2.989-1.746,1.793-.542.799-.88,1.556-1.015,2.273-.134.717-.08,1.366.163,1.949.243.583.653,1.071,1.231,1.463.583.396,1.188.599,1.815.61s1.25-.179,1.868-.57c.618-.392,1.198-.987,1.741-1.785.549-.809.892-1.573,1.027-2.292.136-.719.083-1.368-.159-1.947-.242-.579-.654-1.066-1.237-1.462Z"/><path d="M91.648,190.699l-2.174-.58-.885,3.318,2.121.566c.381.102.743.125,1.085.068.342-.057.633-.19.875-.399.241-.209.409-.49.503-.842.127-.475.061-.907-.196-1.297s-.7-.668-1.328-.835Z"/><path d="M55.358,169.823c-.495-.493-1.051-.803-1.67-.931-.619-.128-1.268-.057-1.948.213-.68.27-1.363.749-2.049,1.437-.682.684-1.155,1.366-1.42,2.044s-.332,1.327-.202,1.945.442,1.174.937,1.666c.499.497,1.055.81,1.67.937.614.128,1.261.057,1.941-.213.68-.269,1.361-.746,2.042-1.43.69-.693,1.169-1.379,1.436-2.061.267-.681.336-1.328.206-1.942-.13-.614-.445-1.169-.943-1.666Z"/><path d="M91.598,196.47c-.286-.249-.654-.434-1.106-.555l-2.394-.639-.948,3.556,2.323.62c.786.21,1.402.21,1.847.002.445-.208.734-.561.867-1.06.099-.369.096-.72-.007-1.053-.103-.332-.297-.623-.583-.872Z"/><path d="M36.687,109.206c-1.35-4.265-7.339-1.761-5.561,2.386,1.549-1.509,3.297-2.61,5.561-2.386Z"/><path d="M27.941,112.917c-1.019-4.494-7.705-1.197-5.701,2.127.291.482.418.056.666-.138,1.609-1.255,2.76-2.259,5.035-1.989Z"/><path d="M106.19,197.941c-.187-.864-.371-1.808-.553-2.832-.118-.662-.238-1.366-.36-2.106-.243.714-.475,1.394-.694,2.033-.339.985-.668,1.879-.988,2.68l-.495,1.182,3.388.295-.298-1.251Z"/><path d="M31.649,117.287c-2.372.913-4.709,1.088-7.152.404,4.305,6.991,14.421,2.551,12.719-5.303-1.477,2.091-3.08,3.942-5.567,4.9Z"/><path d="M207.415,161.01c.785-1.532,1.534-3.086,2.245-4.66.356-.787.702-1.579,1.039-2.376.674-1.594,1.311-3.208,1.909-4.841.299-.816.588-1.637.867-2.463.559-1.651,1.078-3.32,1.557-5.006.239-.843.469-1.69.688-2.542s.428-1.707.626-2.567.386-1.723.564-2.59c.355-1.735.668-3.485.937-5.249.135-.882.259-1.768.372-2.657.226-1.778.408-3.57.546-5.375.206-2.707.311-5.442.311-8.201s-.105-5.495-.311-8.201c-.137-1.805-.32-3.596-.546-5.375-.113-.889-.237-1.775-.372-2.657-.27-1.764-.582-3.514-.937-5.249-.177-.867-.366-1.731-.564-2.59s-.407-1.715-.626-2.567-.448-1.699-.688-2.542c-.479-1.686-.998-3.355-1.557-5.006-.279-.826-.569-1.646-.867-2.463-.598-1.633-1.234-3.246-1.909-4.841-.337-.797-.684-1.589-1.039-2.376-.712-1.574-1.46-3.128-2.245-4.66-.785-1.532-1.605-3.043-2.461-4.531-.428-.744-.864-1.482-1.309-2.215-.89-1.465-1.815-2.907-2.773-4.325-.958-1.418-1.949-2.811-2.972-4.179-1.535-2.052-3.141-4.047-4.817-5.981-1.117-1.289-2.264-2.552-3.441-3.786-.588-.617-1.184-1.227-1.787-1.83-.603-.603-1.213-1.198-1.83-1.787-1.234-1.177-2.496-2.324-3.786-3.441-1.934-1.675-3.929-3.282-5.981-4.817-1.368-1.023-2.761-2.014-4.179-2.972-1.418-.958-2.86-1.882-4.325-2.773-.733-.445-1.471-.882-2.215-1.309-1.488-.856-2.999-1.676-4.531-2.461-1.532-.785-3.086-1.534-4.66-2.245-.787-.356-1.579-.702-2.376-1.039-1.594-.674-3.208-1.311-4.841-1.909-.816-.299-1.637-.588-2.463-.867-1.651-.559-3.32-1.078-5.006-1.557-.843-.239-1.69-.469-2.542-.688s-1.707-.428-2.567-.626-1.723-.386-2.59-.564c-1.735-.355-3.485-.668-5.249-.937-.882-.135-1.768-.259-2.657-.372-1.778-.226-3.57-.408-5.375-.546-2.707-.206-5.442-.311-8.201-.311s-5.495.105-8.201.311c-1.805.137-3.596.32-5.375.546-.889.113-1.775.237-2.657.372-1.764.27-3.514.582-5.249.937-.867.177-1.731.366-2.59.564s-1.715.407-2.567.626-1.699.448-2.542.688c-1.686.479-3.355.998-5.006,1.557-.826.279-1.646.569-2.463.867-1.633.598-3.246,1.234-4.841,1.909-.797.337-1.589.684-2.376,1.039-1.574.712-3.128,1.46-4.66,2.245-1.532.785-3.043,1.605-4.531,2.461-.744.428-1.482.864-2.215,1.309-1.973,1.199-3.9,2.465-5.786,3.786-.404.283-.807.569-1.207.857-.806.581-1.603,1.175-2.393,1.778-1.43,1.093-2.832,2.221-4.203,3.383-.876.742-1.742,1.494-2.593,2.264-.704.636-1.401,1.279-2.088,1.934-1.851,1.765-3.639,3.596-5.359,5.489-1.147,1.262-2.264,2.552-3.35,3.868-1.086,1.316-2.141,2.659-3.164,4.027-1.023,1.368-2.014,2.761-2.972,4.179-.958,1.418-1.882,2.86-2.773,4.325-.445.733-.882,1.471-1.309,2.215-.856,1.488-1.676,2.999-2.461,4.531-.785,1.532-1.534,3.086-2.245,4.66-.712,1.574-1.386,3.168-2.022,4.782-1.273,3.227-2.392,6.531-3.35,9.904-.479,1.686-.917,3.389-1.314,5.108-.198.86-.386,1.723-.564,2.59-.355,1.735-.668,3.485-.937,5.249s-.496,3.543-.678,5.335c-.091.896-.171,1.795-.24,2.697-.206,2.707-.311,5.442-.311,8.201s.105,5.495.311,8.201c.069.902.149,1.801.24,2.697.182,1.792.408,3.57.678,5.335.27,1.764.582,3.514.937,5.249.177.867.366,1.731.564,2.59.397,1.719.835,3.422,1.314,5.108.958,3.372,2.077,6.677,3.35,9.904.636,1.614,1.311,3.208,2.022,4.782.712,1.574,1.46,3.128,2.245,4.66.785,1.532,1.605,3.043,2.461,4.531.428.744.864,1.482,1.309,2.215.89,1.465,1.815,2.907,2.773,4.325.958,1.418,1.949,2.811,2.972,4.179,1.023,1.368,2.078,2.711,3.164,4.027,1.086,1.316,2.203,2.606,3.35,3.868,1.72,1.893,3.508,3.724,5.359,5.489.687.655,1.384,1.298,2.088,1.934.851.769,1.718,1.522,2.593,2.264,1.372,1.162,2.773,2.29,4.203,3.383.789.603,1.586,1.197,2.393,1.778.4.289.803.574,1.207.857,1.886,1.321,3.813,2.587,5.786,3.786.733.445,1.471.882,2.215,1.309,1.488.856,2.999,1.676,4.531,2.461,1.532.785,3.086,1.534,4.66,2.245.787.356,1.579.702,2.376,1.039,1.594.674,3.208,1.311,4.841,1.909.816.299,1.637.588,2.463.867,1.651.559,3.32,1.078,5.006,1.557.843.239,1.69.469,2.542.688s1.707.428,2.567.626,1.723.386,2.59.564c1.735.355,3.485.668,5.249.937.882.135,1.768.259,2.657.372,1.778.226,3.57.408,5.375.546,2.707.206,5.442.311,8.201.311s5.495-.105,8.201-.311c1.805-.137,3.596-.32,5.375-.546.889-.113,1.775-.237,2.657-.372,1.764-.27,3.514-.582,5.249-.937.867-.177,1.731-.366,2.59-.564s1.715-.407,2.567-.626,1.699-.448,2.542-.688c1.686-.479,3.355-.998,5.006-1.557.826-.279,1.646-.569,2.463-.867,1.633-.598,3.246-1.234,4.841-1.909.797-.337,1.589-.684,2.376-1.039,1.574-.712,3.128-1.46,4.66-2.245,1.532-.785,3.043-1.605,4.531-2.461.744-.428,1.482-.864,2.215-1.309,1.465-.89,2.907-1.815,4.325-2.773,1.418-.958,2.811-1.949,4.179-2.972,2.052-1.535,4.047-3.141,5.981-4.817,1.289-1.117,2.552-2.264,3.786-3.441.617-.588,1.227-1.184,1.83-1.787s1.198-1.213,1.787-1.83c1.177-1.234,2.324-2.496,3.441-3.786,1.675-1.934,3.282-3.929,4.817-5.981,1.023-1.368,2.014-2.761,2.972-4.179.958-1.418,1.882-2.86,2.773-4.325.445-.733.882-1.471,1.309-2.215.856-1.488,1.676-2.999,2.461-4.531ZM161.639,35.003l4.079,2.754-4.934,18.789-3.457-2.334,1.209-4.321-5.398-3.644-3.511,2.767-3.437-2.32,15.449-11.691ZM140.908,25.092l3.493,1.372-5.563,14.168,7.365,2.892-1.138,2.898-10.858-4.263,6.701-17.065ZM123.907,21.312l3.69.684-2.773,14.966,7.779,1.442-.567,3.061-11.469-2.126,3.341-18.027ZM114.324,20.769l3.75.15-.733,18.319-3.75-.15.733-18.319ZM97.116,21.979h0s2.734-.349,2.734-.349c1.823-.233,3.438-.069,4.845.492,1.407.56,2.551,1.473,3.432,2.737.881,1.264,1.442,2.841,1.683,4.728.242,1.896.096,3.569-.438,5.018-.534,1.449-1.416,2.623-2.645,3.52-1.229.897-2.767,1.464-4.615,1.7l-4.711.602h0s-1.684.215-1.684.215l-2.323-18.186,3.723-.476ZM80.825,26.383c1.306-.489,2.502-.674,3.589-.556s2.027.507,2.821,1.164c.794.658,1.402,1.551,1.825,2.68.423,1.129.544,2.194.362,3.195-.182,1.001-.654,1.892-1.417,2.672-.052.053-.108.103-.162.155l6.164,5.33-3.895,1.458-5.578-4.901-2.756,1.032,2.296,6.13-3.514,1.316-6.43-17.17,6.695-2.507ZM63.267,35.046l15.57,11.617-3.46,2.331-3.552-2.74-5.402,3.639,1.249,4.292-3.439,2.317-5.049-18.705,4.082-2.75ZM25.739,124.795c-6.196-4.152-9.923-11.73-11.843-18.766,8.595,2.376,17.807-1.567,22.13-9.274,4.273,6.393,7.233,16.727,4.578,24.186-2.526,7.098-9.056,7.747-14.865,3.854ZM40.79,161.832l-4.239,3.03-1.615-2.26,11.041-7.892,5.191,7.262-1.875,1.34-3.575-5.002-3.083,2.203,3.226,4.513-1.845,1.319-3.226-4.513ZM56.661,177.485c-1.037,1.041-2.119,1.734-3.246,2.077-1.126.344-2.22.372-3.281.087-1.061-.286-2.018-.853-2.869-1.701-.847-.844-1.417-1.798-1.709-2.86-.292-1.062-.268-2.157.071-3.285.339-1.128,1.027-2.212,2.065-3.253,1.041-1.045,2.126-1.741,3.255-2.086,1.129-.345,2.225-.375,3.288-.087,1.063.288,2.018.854,2.866,1.698.852.849,1.422,1.803,1.712,2.863.29,1.06.264,2.155-.078,3.285-.341,1.13-1.033,2.217-2.074,3.263ZM71.222,183.197c-.125,1.174-.602,2.371-1.431,3.592-.825,1.216-1.76,2.097-2.802,2.644-1.043.547-2.112.779-3.208.695-1.096-.083-2.141-.462-3.136-1.138-.99-.672-1.727-1.503-2.211-2.492-.484-.989-.665-2.07-.541-3.241.124-1.171.598-2.365,1.423-3.581.829-1.221,1.765-2.106,2.81-2.656,1.045-.549,2.116-.782,3.214-.697,1.098.085,2.142.463,3.132,1.136.995.675,1.733,1.507,2.215,2.494s.66,2.068.535,3.242ZM80.305,186.809l-4.661,10.258-2.538-1.153,4.662-10.258-3.782-1.718.954-2.098,10.092,4.586-.954,2.098-3.773-1.715ZM96.007,193.125c-.138.516-.361.94-.668,1.269-.308.33-.672.569-1.092.718-.42.149-.87.216-1.35.201l-.035.132c.488.149.916.413,1.284.79.367.378.625.836.774,1.375.148.539.136,1.132-.036,1.777-.185.693-.52,1.266-1.006,1.721-.486.455-1.104.75-1.853.887-.75.136-1.62.072-2.612-.192l-5.536-1.477,3.498-13.114,5.201,1.388c.962.257,1.726.616,2.291,1.078.565.462.94.988,1.125,1.578.185.59.19,1.214.015,1.87ZM107.79,204.654l-.77-3.231-4.803-.418-1.278,3.052-3.058-.267,5.797-13.118,3.63.316,3.559,13.933-3.076-.268ZM115.289,204.754l-.992-13.536,2.771-.203.824,11.237,5.841-.428.168,2.298-8.612.632ZM128.374,203.435l-2.906-13.257,2.714-.595,2.413,11.006,5.721-1.254.493,2.251-8.435,1.849ZM136.537,169.421c-7.62,3.223-15.713,4.857-24.054,4.857s-16.434-1.634-24.054-4.857c-7.359-3.112-13.967-7.568-19.641-13.242-5.674-5.674-10.13-12.283-13.242-19.641-3.223-7.62-4.857-15.713-4.857-24.054s1.634-16.434,4.857-24.054c3.112-7.359,7.568-13.967,13.242-19.641,5.674-5.674,12.283-10.13,19.641-13.242,7.62-3.223,15.713-4.857,24.054-4.857s16.434,1.634,24.054,4.857c7.359,3.112,13.967,7.568,19.641,13.242,5.674,5.674,10.13,12.283,13.242,19.641,3.223,7.62,4.857,15.713,4.857,24.054s-1.634,16.434-4.857,24.054c-3.112,7.359-7.568,13.967-13.242,19.641-5.674,5.674-12.283,10.13-19.641,13.242ZM155.835,192.564c-.251.627-.629,1.206-1.133,1.74-.505.533-1.143.986-1.914,1.357-1.083.522-2.171.743-3.265.663-1.093-.08-2.113-.468-3.059-1.165s-1.738-1.707-2.376-3.031c-.64-1.33-.938-2.583-.892-3.761.045-1.178.379-2.22,1.001-3.127.621-.906,1.468-1.617,2.541-2.134.695-.335,1.388-.549,2.081-.644s1.361-.068,2.005.08c.644.148,1.244.42,1.799.817.555.397,1.045.917,1.47,1.561l-2.535,1.222c-.218-.313-.468-.562-.749-.746-.281-.185-.582-.313-.903-.384s-.655-.082-1.002-.033c-.347.05-.695.158-1.046.327-.634.306-1.114.733-1.44,1.281-.326.548-.476,1.188-.45,1.92.026.733.247,1.531.664,2.395.424.881.916,1.557,1.474,2.03.558.473,1.149.747,1.773.824s1.25-.036,1.879-.339c.35-.169.651-.373.903-.612.252-.239.453-.508.602-.806s.239-.616.268-.954c.029-.337-.006-.688-.107-1.051l2.535-1.222c.209.601.303,1.226.283,1.876s-.156,1.288-.407,1.915ZM162.028,190.388l-7.787-11.115,2.275-1.594,6.465,9.228,4.797-3.361,1.323,1.887-7.072,4.955ZM178.568,176.257c-.313.885-.873,1.718-1.678,2.501-.801.779-1.648,1.312-2.541,1.6s-1.764.328-2.614.121-1.619-.666-2.309-1.376l-6.139-6.316,1.992-1.936,5.981,6.152c.368.379.779.634,1.232.765.453.131.913.133,1.378.007.466-.127.901-.387,1.306-.78.409-.398.684-.827.824-1.289.14-.462.15-.921.032-1.378-.118-.457-.361-.875-.729-1.253l-5.981-6.153,1.998-1.943,6.14,6.316c.69.71,1.125,1.493,1.307,2.35.181.857.115,1.728-.198,2.612ZM188.699,163.668c-.143.749-.516,1.538-1.119,2.368l-3.37,4.633-10.976-7.983,3.167-4.353c.586-.805,1.196-1.389,1.83-1.749.634-.361,1.26-.522,1.877-.482.617.04,1.2.259,1.75.659.432.314.747.674.943,1.08s.289.831.276,1.276c-.012.446-.112.889-.298,1.332l.11.08c.315-.402.715-.706,1.199-.913.485-.207,1.005-.283,1.562-.227.556.056,1.105.28,1.645.673.579.422.994.941,1.244,1.558.249.617.303,1.3.16,2.048ZM201.796,123.503c-4.322,3.736-10.36,5.482-14.425.372-5.423-6.816-2.721-20.096,1.568-27.006.764.986,1.485,2.184,2.345,3.083,4.799,5.007,13.575,7.465,20.047,4.598-.828,6.731-4.355,14.476-9.535,18.953Z"/><path d="M159.84,45.234c.345-1.142.747-2.378,1.204-3.708.295-.859.615-1.77.956-2.723-.755.684-1.475,1.335-2.153,1.945-1.046.942-2.021,1.781-2.924,2.517l-1.36,1.072,3.808,2.571.468-1.673Z"/><path d="M181.167,160.071c-.108-.3-.31-.557-.604-.772-.398-.289-.825-.384-1.28-.284-.456.1-.875.413-1.257.939l-1.323,1.819,2.777,2.02,1.291-1.775c.232-.319.384-.648.454-.988.07-.339.051-.659-.057-.959Z"/><path d="M185.399,162.219c-.309-.225-.638-.349-.985-.373-.347-.023-.688.053-1.023.23-.335.177-.64.454-.915.832l-1.457,2.004,2.976,2.165,1.415-1.945c.478-.658.701-1.232.667-1.722-.034-.49-.26-.887-.677-1.191Z"/><path d="M190.454,114.811c-1.048.399-3.072,1.859-3.501,2.861-.239.558.347.359.597.333,5.846-.594,7.863-.338,11.78,4.23.163.19-.009.501.606.335.688-5.331-4.271-9.741-9.482-7.76Z"/><path d="M195.693,108.652c.206-.698-1.686-.324-2.226-.415-.932-.157-2.835-.885-3.076-1.827-.728-.518-.838,1.377-.736,1.918.549,2.898,4.949,3.182,6.037.325Z"/><path d="M200.378,110.603c-.695-.395-1.606-2.039-1.75-.057-.269,3.693,5.206,4.683,6.081.897-1.657.128-2.887-.021-4.33-.84Z"/><path d="M41.029,191.576c.561.507,1.126,1.011,1.698,1.507.295.256.597.504.895.757-.876-.742-1.742-1.494-2.593-2.264Z"/><path d="M47.825,197.223c.294.225.585.454.882.676.499.373,1.005.737,1.51,1.102-.806-.581-1.603-1.175-2.393-1.778Z"/><path d="M33.582,40.813c-.574.631-1.14,1.269-1.698,1.914s-1.109,1.296-1.652,1.954c1.086-1.316,2.203-2.606,3.35-3.868Z"/><path d="M52.886,200.871c1.418.958,2.86,1.882,4.325,2.773-1.973-1.199-3.9-2.465-5.786-3.786.485.34.97.681,1.461,1.013Z"/><path d="M11.491,78.296c-.559,1.651-1.078,3.32-1.557,5.006.958-3.372,2.077-6.677,3.35-9.904-.636,1.614-1.234,3.246-1.793,4.897Z"/><path d="M15.307,68.617c-.356.787-.702,1.579-1.039,2.376-.337.797-.665,1.599-.983,2.406.636-1.614,1.311-3.208,2.022-4.782Z"/><path d="M9.935,141.664c.479,1.686.998,3.355,1.557,5.006.559,1.651,1.157,3.284,1.793,4.897-1.273-3.227-2.392-6.531-3.35-9.904Z"/><path d="M30.231,180.286c.543.658,1.094,1.309,1.652,1.954s1.124,1.283,1.698,1.914c-1.147-1.262-2.264-2.552-3.35-3.868Z"/><path d="M33.582,184.154c1.147,1.262,2.324,2.496,3.529,3.702.603.603,1.213,1.198,1.83,1.787-1.851-1.765-3.639-3.596-5.359-5.489Z"/><path d="M13.285,151.568c.318.807.646,1.609.983,2.406.337.797.684,1.589,1.039,2.376-.712-1.574-1.386-3.168-2.022-4.782Z"/><path d="M24.095,172.08c-.958-1.418-1.882-2.86-2.773-4.325.89,1.465,1.815,2.907,2.773,4.325Z"/><path d="M200.871,52.886c.958,1.418,1.882,2.86,2.773,4.325-.89-1.465-1.815-2.907-2.773-4.325Z"/><path d="M21.323,57.211c.89-1.465,1.815-2.907,2.773-4.325-.958,1.418-1.882,2.86-2.773,4.325Z"/><path d="M172.08,200.871c-1.418.958-2.86,1.882-4.325,2.773,1.465-.89,2.907-1.815,4.325-2.773Z"/><path d="M203.644,167.755c-.89,1.465-1.815,2.907-2.773,4.325.958-1.418,1.882-2.86,2.773-4.325Z"/><path d="M136.556,216.346c.691-.16,1.377-.331,2.063-.503.167-.042.336-.08.503-.123-.851.219-1.707.428-2.567.626Z"/><path d="M139.122,215.72c.181-.047.36-.099.541-.146.669-.176,1.337-.353,2.001-.541-.843.239-1.69.469-2.542.688Z"/><path d="M149.133,212.608c.31-.114.617-.235.926-.352,1.316-.496,2.624-1.011,3.915-1.557-1.594.674-3.208,1.311-4.841,1.909Z"/><path d="M146.671,213.475c.535-.181,1.064-.373,1.595-.562.289-.103.58-.2.867-.306-.816.299-1.637.588-2.463.867Z"/><path d="M156.35,209.66c.367-.166.73-.341,1.095-.511,1.199-.559,2.39-1.132,3.565-1.734-1.532.785-3.086,1.534-4.66,2.245Z"/><path d="M153.974,210.699c.448-.19.891-.389,1.337-.585.346-.152.695-.299,1.039-.455-.787.356-1.579.702-2.376,1.039Z"/><path d="M161.01,207.415c1.532-.785,3.043-1.605,4.531-2.461-1.488.856-2.999,1.676-4.531,2.461Z"/><path d="M120.685,218.765c1.805-.137,3.596-.32,5.375-.546-1.778.226-3.57.408-5.375.546Z"/><path d="M68.617,209.66c.344.156.693.303,1.039.455.445.196.888.395,1.337.585-.797-.337-1.589-.684-2.376-1.039Z"/><path d="M70.993,210.699c1.291.546,2.598,1.061,3.915,1.557.309.116.615.238.926.352-1.633-.598-3.246-1.234-4.841-1.909Z"/><path d="M43.622,193.84c1.372,1.162,2.773,2.29,4.203,3.383-1.43-1.093-2.832-2.221-4.203-3.383Z"/><path d="M75.833,212.608c.288.105.579.203.867.306.531.189,1.061.381,1.595.562-.826-.279-1.646-.569-2.463-.867Z"/><path d="M63.957,207.415c1.174.602,2.365,1.175,3.565,1.734.365.17.728.345,1.095.511-1.574-.712-3.128-1.46-4.66-2.245Z"/><path d="M50.218,199.001c.4.289.803.574,1.207.857-.404-.283-.807-.569-1.207-.857Z"/><path d="M98.907,218.219c1.778.226,3.57.408,5.375.546-1.805-.137-3.596-.32-5.375-.546Z"/><path d="M91.001,216.91c1.735.355,3.485.668,5.249.937-1.764-.27-3.514-.582-5.249-.937Z"/><path d="M128.716,217.848c1.764-.27,3.514-.582,5.249-.937-1.735.355-3.485.668-5.249.937Z"/><path d="M59.426,204.954c1.488.856,2.999,1.676,4.531,2.461-1.532-.785-3.043-1.605-4.531-2.461Z"/><path d="M83.302,215.032c.664.188,1.332.366,2.001.541.181.048.36.1.541.146-.851-.219-1.699-.448-2.542-.688Z"/><path d="M85.844,215.72c.167.043.336.081.503.123.686.173,1.372.344,2.063.503-.86-.198-1.715-.407-2.567-.626Z"/><path d="M38.941,189.642c.687.655,1.384,1.298,2.088,1.934-.704-.636-1.401-1.279-2.088-1.934Z"/><path d="M207.415,161.01c.602-1.174,1.175-2.365,1.734-3.565.17-.365.345-.728.511-1.095-.712,1.574-1.46,3.128-2.245,4.66Z"/><path d="M218.219,126.059c.226-1.778.408-3.57.546-5.375-.137,1.805-.32,3.596-.546,5.375Z"/><path d="M216.91,133.965c.355-1.735.668-3.485.937-5.249-.27,1.764-.582,3.514-.937,5.249Z"/><path d="M215.72,139.122c.043-.167.081-.336.123-.503.173-.686.344-1.372.503-2.063-.198.86-.407,1.715-.626,2.567Z"/><path d="M215.032,141.664c.188-.664.366-1.332.541-2.001.048-.181.1-.36.146-.541-.219.851-.448,1.699-.688,2.542Z"/><path d="M212.608,149.133c.105-.288.203-.579.306-.867.189-.531.381-1.061.562-1.595-.279.826-.569,1.646-.867,2.463Z"/><path d="M218.765,104.282c-.137-1.805-.32-3.596-.546-5.375.226,1.778.408,3.57.546,5.375Z"/><path d="M210.699,153.974c.546-1.291,1.061-2.598,1.557-3.915.116-.309.238-.615.352-.926-.598,1.633-1.234,3.246-1.909,4.841Z"/><path d="M215.72,85.844c-.047-.181-.099-.36-.146-.541-.176-.669-.353-1.337-.541-2.001.239.843.469,1.69.688,2.542Z"/><path d="M213.475,78.296c-.181-.535-.373-1.064-.562-1.595-.103-.289-.2-.58-.306-.867.299.816.588,1.637.867,2.463Z"/><path d="M217.848,96.25c-.27-1.764-.582-3.514-.937-5.249.355,1.735.668,3.485.937,5.249Z"/><path d="M216.346,88.411c-.16-.691-.331-1.377-.503-2.063-.042-.167-.08-.336-.123-.503.219.851.428,1.707.626,2.567Z"/><path d="M176.259,197.9c-1.368,1.023-2.761,2.014-4.179,2.972,1.418-.958,2.811-1.949,4.179-2.972Z"/><path d="M209.66,156.35c.156-.344.303-.693.455-1.039.196-.445.395-.888.585-1.337-.337.797-.684,1.589-1.039,2.376Z"/><path d="M212.608,75.833c-.114-.31-.235-.617-.352-.926-.496-1.316-1.011-2.624-1.557-3.915.674,1.594,1.311,3.208,1.909,4.841Z"/><path d="M197.9,176.259c-1.535,2.052-3.141,4.047-4.817,5.981,1.675-1.934,3.282-3.929,4.817-5.981Z"/><path d="M200.871,172.08c-.958,1.418-1.949,2.811-2.972,4.179,1.023-1.368,2.014-2.761,2.972-4.179Z"/><path d="M182.24,193.083c-1.934,1.675-3.929,3.282-5.981,4.817,2.052-1.535,4.047-3.141,5.981-4.817Z"/><path d="M207.415,161.01c-.785,1.532-1.605,3.043-2.461,4.531.856-1.488,1.676-2.999,2.461-4.531Z"/><path d="M182.24,193.083c.645-.558,1.283-1.124,1.914-1.698.631-.574,1.255-1.154,1.872-1.743-1.234,1.177-2.496,2.324-3.786,3.441Z"/><path d="M197.9,48.707c1.023,1.368,2.014,2.761,2.972,4.179-.958-1.418-1.949-2.811-2.972-4.179Z"/><path d="M193.083,42.726c1.675,1.934,3.282,3.929,4.817,5.981-1.535-2.052-3.141-4.047-4.817-5.981Z"/><path d="M209.66,68.617c-.166-.367-.341-.73-.511-1.095-.559-1.199-1.132-2.39-1.734-3.565.785,1.532,1.534,3.086,2.245,4.66Z"/><path d="M207.415,63.957c-.785-1.532-1.605-3.043-2.461-4.531.856,1.488,1.676,2.999,2.461,4.531Z"/><path d="M193.083,42.726c-.558-.645-1.124-1.283-1.698-1.914-.574-.631-1.154-1.255-1.743-1.872,1.177,1.234,2.324,2.496,3.441,3.786Z"/><path d="M210.699,70.993c-.19-.448-.389-.891-.585-1.337-.152-.346-.299-.695-.455-1.039.356.787.702,1.579,1.039,2.376Z"/><path d="M191.385,184.154c.573-.631,1.14-1.269,1.698-1.914-1.117,1.289-2.264,2.552-3.441,3.786.588-.617,1.169-1.241,1.743-1.872Z"/><path d="M67.521,209.148c.707.33,1.419.652,2.135.966-.346-.152-.695-.299-1.039-.455-.367-.166-.73-.341-1.095-.511Z"/><path d="M38.941,189.642c-.617-.588-1.227-1.184-1.83-1.787,1.808,1.808,3.681,3.552,5.615,5.227-.572-.496-1.137-.999-1.698-1.507-.704-.636-1.401-1.279-2.088-1.934Z"/><path d="M31.884,182.24c1.675,1.934,3.419,3.807,5.227,5.615-1.206-1.206-2.382-2.44-3.529-3.702-.574-.631-1.14-1.269-1.698-1.914Z"/><path d="M27.067,176.259c1.535,2.052,3.141,4.047,4.817,5.981-.558-.645-1.109-1.296-1.652-1.954-1.086-1.316-2.141-2.659-3.164-4.027Z"/><path d="M14.267,153.974c1.011,2.391,2.107,4.738,3.285,7.036-.785-1.532-1.534-3.086-2.245-4.66-.356-.787-.702-1.579-1.039-2.376Z"/><path d="M212.913,76.701c-.214-.6-.433-1.198-.657-1.793.116.309.238.615.352.926.105.288.203.579.306.867Z"/><path d="M50.218,199.001c-.506-.365-1.012-.729-1.51-1.102,1.368,1.023,2.761,2.014,4.179,2.972-.491-.332-.976-.673-1.461-1.013-.404-.283-.807-.569-1.207-.857Z"/><path d="M210.115,69.656c-.314-.716-.636-1.427-.966-2.135.17.365.345.728.511,1.095.156.344.303.693.455,1.039Z"/><path d="M43.622,193.84c-.298-.253-.6-.501-.895-.757,1.934,1.675,3.929,3.282,5.981,4.817-.297-.222-.588-.451-.882-.676-1.43-1.093-2.832-2.221-4.203-3.383Z"/><path d="M187.856,187.856c1.206-1.206,2.382-2.44,3.529-3.702-.574.631-1.154,1.255-1.743,1.872-.588.617-1.184,1.227-1.787,1.83Z"/><path d="M37.111,37.111c-1.808,1.808-3.552,3.681-5.227,5.615.558-.645,1.124-1.283,1.698-1.914,1.147-1.262,2.324-2.496,3.529-3.702Z"/><path d="M31.884,42.726c-1.675,1.934-3.282,3.929-4.817,5.981,1.023-1.368,2.078-2.711,3.164-4.027.543-.658,1.094-1.309,1.652-1.954Z"/><path d="M11.491,146.671c.838,2.476,1.765,4.912,2.776,7.303-.337-.797-.665-1.599-.983-2.406-.636-1.614-1.234-3.246-1.793-4.897Z"/><path d="M17.552,63.957c-1.177,2.298-2.273,4.645-3.285,7.036.337-.797.684-1.589,1.039-2.376.712-1.574,1.46-3.128,2.245-4.66Z"/><path d="M14.267,70.993c-1.011,2.391-1.938,4.827-2.776,7.303.559-1.651,1.157-3.284,1.793-4.897.318-.807.646-1.609.983-2.406Z"/><path d="M193.083,42.726c1.675,1.934,3.282,3.929,4.817,5.981-1.535-2.052-3.141-4.047-4.817-5.981Z"/><path d="M24.095,52.886c.958-1.418,1.949-2.811,2.972-4.179-1.023,1.368-2.014,2.761-2.972,4.179Z"/><path d="M20.013,165.54c-.856-1.488-1.676-2.999-2.461-4.531.785,1.532,1.605,3.043,2.461,4.531Z"/><path d="M17.552,63.957c.785-1.532,1.605-3.043,2.461-4.531-.856,1.488-1.676,2.999-2.461,4.531Z"/><path d="M209.148,157.445c.33-.707.652-1.419.966-2.135-.152.346-.299.695-.455,1.039-.166.367-.341.73-.511,1.095Z"/><path d="M138.619,215.843c.349-.088.697-.178,1.045-.269-.181.048-.36.1-.541.146-.167.043-.336.081-.503.123Z"/><path d="M182.24,193.083c-1.934,1.675-3.929,3.282-5.981,4.817,2.052-1.535,4.047-3.141,5.981-4.817Z"/><path d="M148.266,212.913c.6-.214,1.198-.433,1.793-.657-.309.116-.615.238-.926.352-.288.105-.579.203-.867.306Z"/><path d="M74.908,212.256c.595.224,1.193.444,1.793.657-.289-.103-.58-.2-.867-.306-.31-.114-.617-.235-.926-.352Z"/><path d="M215.843,86.348c-.088-.349-.178-.697-.269-1.045.048.181.1.36.146.541.043.167.081.336.123.503Z"/><path d="M215.573,139.664c.091-.348.181-.696.269-1.045-.042.167-.08.336-.123.503-.047.181-.099.36-.146.541Z"/><path d="M184.154,191.385c1.262-1.147,2.496-2.324,3.702-3.529-.603.603-1.213,1.198-1.83,1.787s-1.241,1.169-1.872,1.743Z"/><path d="M155.311,210.115c.716-.314,1.427-.636,2.135-.966-.365.17-.728.345-1.095.511-.344.156-.693.303-1.039.455Z"/><path d="M27.067,176.259c-1.023-1.368-2.014-2.761-2.972-4.179.958,1.418,1.949,2.811,2.972,4.179Z"/><path d="M85.303,215.573c.348.091.696.181,1.045.269-.167-.042-.336-.08-.503-.123-.181-.047-.36-.099-.541-.146Z"/><path d="M212.256,150.059c.224-.595.444-1.193.657-1.793-.103.289-.2.58-.306.867-.114.31-.235.617-.352.926Z"/><path d="M197.9,176.259c-1.535,2.052-3.141,4.047-4.817,5.981,1.675-1.934,3.282-3.929,4.817-5.981Z"/><path d="M77.069,83.123c-4.581,4.182-7.992,10.025-8.432,16.307.47.058.617.044.962-.28.433-.405,1.846-3.24,2.516-4.12.887-1.164,2.86-2.724,3.498-3.691.321-.487,2.622-6.341,2.601-6.699-.012-.215-1.025-1.518-1.146-1.517Z"/><path d="M96.81,78.114l.028-1.355h-5.668c-2.313,0-7.474,1.971-9.545,3.174-1.167.677-3.529,1.612-1.258,2.609,2.482-.645,5.785-.303,8.186-.934.929-.244,2.939-1.712,4.142-2.217,1.276-.536,2.77-.931,4.114-1.276Z"/><path d="M118.9,100.847l-.728.013c-.564,2.037-2.627,4.864-3.023,6.79-.283,1.372.054,3.179-.066,4.635-.149,1.816-.893,3.513-1.172,5.196-.151.915.214.864.637.548,2.149-5.582,4.394-10.983,4.352-17.181Z"/><path d="M96.982,80.068c-1.2.088-6.73,2.205-7.019,3.247l1.8,6.188,13.278,5.441,5.875-3.006c-.556-2.237-1.52-5.786-3.06-7.533-1.642-1.862-8.422-4.516-10.874-4.337Z"/><path d="M113.116,108.316l-6.609-1.534-11.27,8.882-.13,4.142c.237,2.836.426,5.668.981,8.17,1.824,8.224,7.971,19.959,17.284,21.32h33.105c.189-3.241-3.519-3.073-5.85-3.258l-2.453.115c-.101-.389.16-.449.334-.674.75-.971,1.865-1.854,2.675-2.936,2.548-3.401,4.381-7.859,1.259-11.545-1.555-1.836-3.716-2.574-5.974-2.574-2.783,0-5.713,1.122-7.836,2.69-.04.013-.072.019-.096.019-.37,0,1.067-1.452,1.225-1.584,2.025-1.693,4.631-2.5,7.245-2.5,1.629,0,3.261.314,4.758.922.104-.083-1.681-1.665-1.344-2.242,1.914,1.809,3.788,2.936,6.348,2.936.296,0,.602-.015.917-.046,2.21-.216,4.834-1.503,7.02-1.526.005,0,.01,0,.015,0,.651,0,1.737.449,2.406.449.603,0,.868-.364.173-1.75-.922-1.838-4.155-2.161-5.984-2.317-.153-.013-.302-.018-.448-.018-.591,0-1.122.086-1.624.086-.728,0-1.394-.182-2.089-1.071-1.113-1.423-.875-3.569.223-4.937,2.072-2.581,5.258-1.537,8.034-2.29,1.066-.289,3.477-1.311,3.024-2.689-2.034-2.844-3.025-5.638-5.914-7.796-1.022-.764-3.011-1.514-3.691-2.145-.679-.63-1.772-3.927-2.903-3.927-.323,0-.648.268-.968.942-.734,1.544-.624,2.951-1.665,4.62-3.941,6.317-13.42,8.014-19.465,11.732-10.18,6.262-12.221,13.696-12.131,25.115.002.246.135.793-.179.793-.015,0-.032-.001-.049-.004-.651-3.008-.877-6.238-.685-9.322.187-3.007.807-5.806,1.627-8.493.136-1.958.835-12.304.708-15.756ZM151.353,106.688c.069-.011.135-.016.199-.016,1.442,0,1.721,2.571-.065,2.614-.011,0-.022,0-.034,0-1.467,0-1.656-2.359-.1-2.599Z"/><path d="M82.667,102.462c.109,0,.218.007.328.01l-.812-5.943-5.67-3.392c-2.31,2.241-5.183,5.313-5.398,8.634-.138,2.138.529,7.303,1.737,9.373.246-5.272,4.851-8.683,9.816-8.682Z"/><path d="M92.342,108.155c.864,1.399,1.433,3.013,1.833,4.743l.809.314,10.298-7.98-1.016-8.389-.426-.404c-2.137-.4-11.521-5.352-12.881-4.984-.4.108-6.385,4.728-6.509,5.124-.121.438-.07.879-.053,1.324.038,1.034.227,2.878.473,4.79,2.799.583,5.527,2.309,7.473,5.461Z"/><path d="M110.388,82.686l-.722,1c1.74,2.407,2.523,5.271,3.243,8.109l4.944,6.115.865.072c-.257-2.106-.794-4.311-1.696-6.652-.545-1.413-1.185-2.722-1.904-3.933-1.328-1.858-2.913-3.487-4.73-4.711Z"/></g></svg>