<?xml version="1.0" encoding="UTF-8"?><svg id="Capa_2" xmlns="http://www.w3.org/2000/svg" viewBox="0 0 120.501 109.171"><g id="Capa_1-2"><path d="M74.995,80.929c.184,2.242.454,4.39-.09,6.551-.297,1.179-.692,2.349-1.566,3.17-1.068,1.003-1.191,2.146-1.195,3.501-.01,3.173-.509,6.28-1.967,9.15-2.127,4.189-5.677,5.976-10.252,5.866-4.693-.113-8.034-2.314-9.893-6.667-1.26-2.949-1.634-6.053-1.593-9.23.007-.568.161-1.127-.38-1.655-2.784-2.715-3.025-6.098-2.416-9.679.063-.372.119-.745.248-1.557-.821.871-1.379,1.464-1.938,2.055-4.166,4.405-9.004,7.584-15.108,8.657-7.623,1.34-13.735-1.497-18.546-7.069-5.431-6.29-6.448-13.693-4.032-21.557.441-1.435.289-2.208-.944-3.209-5.735-4.659-6.938-11.687-3.1-18.636,3.245-5.876,3.996-11.914,2.186-18.36-.655-2.333-1.367-4.674-1.352-7.161.011-1.815.476-3.47,1.603-4.837C8.886,5.131,13.994,1.271,20.739.285c8.739-1.278,15.707,2.125,21.203,8.757.837,1.01,1.304,1.024,2.279.457,1.644-.955,3.422-1.617,5.277-2.057,4.054-.961,7.772-.545,10.796,2.691,3.377-3.584,7.437-3.662,11.754-2.431,1.623.463,3.195,1.088,4.633,1.964.842.513,1.184.326,1.78-.424C83.273,3.191,89.51-.087,97.321.002c5.026.057,9.365,2.1,13.297,5.083,1.123.852,2.142,1.842,3.208,2.769,3.364,2.929,4.432,6.502,3.263,10.843-.773,2.872-1.608,5.742-1.842,8.742-.353,4.527.719,8.694,2.864,12.659,1.814,3.351,2.901,6.87,2.151,10.768-.727,3.778-2.776,6.705-5.798,8.927-1.025.754-.999,1.326-.623,2.363,3.935,10.854-.4,22.36-10.158,27.121-3.118,1.521-6.537,2.545-9.854,2.219-4.498-.442-8.812-2.046-12.529-4.891-2.238-1.713-4.27-3.637-6.303-5.674ZM17.767,37.544l-.055-.054c.611-2.831.389-5.62-.533-8.341-.694-2.049-.874-4.14-.743-6.271.213-3.466,1.827-6.15,4.842-7.813,4.243-2.34,8.409-2.109,12.399.764,1.444,1.04,2.412.764,3.304-.759.764-1.304.642-2.604-.085-3.868-.671-1.168-1.738-1.909-2.865-2.595-7.662-4.663-17.452-2.18-22.702,1.938-2.743,2.151-3.705,5.174-2.465,8.433,3.09,8.121,2.202,15.999-1.755,23.462-2.315,4.366-.306,7.971,1.975,10.49.616.68.991.615,1.454-.169,1.54-2.608,3.884-4.508,6.045-6.539.963-.905,1.857-1.995,3.178-2.482.061.698-.505,1.053-.859,1.505-3.501,4.465-6.378,9.278-8.14,14.698-2.458,7.557-2.075,14.751,2.914,21.291,4.268,5.595,9.757,7.24,16.26,4.623,5.127-2.063,9.267-5.577,12.976-9.62.409-.446.401-.789.069-1.277-.738-1.086-1.181-2.307-1.524-3.574-.808-2.983-.822-2.98-3.976-3.326-.216-.024-.433-.033-.65-.048-1.61-.113-2.79.119-3.497,2.003-1.179,3.144-3.108,4.004-6.439,3.424-.799-.139-1.589-.332-2.382-.51-.477-.107-.994-.311-1.337.199-.333.496.061.931.279,1.34.261.489.6.937.91,1.409-.7.385-1.001-.01-1.325-.267-1.669-1.322-2.781-3.016-3.368-5.064-.908-3.166-.682-6.33-.016-9.497.769-3.654,1.776-7.225,3.624-10.506.072,3.036-.609,6.048-.312,9.088.314,3.213.99,6.26,4.213,7.933.533.276,1.191.589,1.685.18.526-.436-.033-1.001-.207-1.463-1.235-3.284-.657-6.047,2.045-8.137,1.157-.895.894-1.338.097-2.218-2.501-2.762-3.584-5.914-2.183-9.579.503-1.316,1.116-2.59,1.679-3.883,1.252-2.875,2.055-5.832,1.469-8.997-.459-2.479-2.497-4.178-5.185-4.41-2.069-.179-3.37.949-4.449,3.417-.918,2.099-2.247,3.953-4.364,5.071ZM46.803,43.242c.545-.33,1.976.084,1.534-1.001-.676-1.662-1.461-3.454-3.3-4.274-1.093-.488-2.483-1.009-3.391-.24-.911.77-.032,2.021.277,3.032.074.243.28.447.425.668-1.299-.156-2.624-.276-3.539-1.382-.485-.587-.878-.438-1.34.013-1.521,1.486-2.96,3.028-3.925,4.959-1.804,3.611-1.369,6.927,1.252,9.977,1.178,1.371,1.997,1.383,3.167-.028,1.001-1.206,1.672-2.628,2.428-4.08,1.221,2.986.519,5.547-1.945,7.253-.623.431-1.313.764-1.965,1.156-1.47.885-2.765,1.941-3.341,3.639-.138.408-.249.904.095,1.237.327.316.714.012,1.047-.138,2.086-.939,4.2-1.011,6.336-.203.782.296,1.238.145,1.381-.752.145-.907.351-1.805.559-2.701.904-3.896,5.063-6.67,8.63-6.352-.523.379-.945.69-1.373.993-1.569,1.11-2.596,2.599-3.14,4.437-.553,1.871-.015,2.79,1.914,3.119,1.241.212,2.487.071,3.733-.076,1.433-.169,2.807,0,4.16.813-.54.531-1.002.503-1.406.642-3.06,1.051-5.409,2.934-6.148,6.179-.683,2.996.7,5.381,2.907,7.337,1.081.958,2.168,1.91,3.313,2.919-4.421,1.112-5.916,4.184-4.174,8.355.25.598.568,1.174.906,1.729.946,1.552,2.217,2.817,3.646,3.916.61.469,1.018.692.12,1.382-1.693,1.302-2.183,3.894-1.34,6.094.695,1.812,2.945,3.228,4.945,3.145.517-.021.793-.294.984-.714,1.077-2.368,1.535-4.787.2-7.187-.701-1.259-.452-2.226.152-3.476,1.918-3.97,2.296-8.078.388-12.212-.302-.653-.615-1.327-.16-2.009,2.301-3.446,1.315-7.229,1.116-10.921-.065-1.2-.4-2.389-1.139-3.355-.855-1.117-.806-2.11-.087-3.28,2.139-3.483,1.823-5.839-1.085-8.64-.654-.63-.62-1.18-.011-1.805,2.26-2.322,2.228-3.086-.133-5.274-.809-.75-1.881-1.382-1.329-3.062-3.199,2.345-4.888,6.271-9.392,6.956.743-1.093,1.36-1.848,1.601-2.812.295-1.183.312-2.077-1.241-2.366-.932-.173-1.874-.599-2.312-1.611ZM44.261,22.029c-2.062,1.185-3.998,2.2-5.528,3.777-1.439,1.482-2.491,3.177-2.352,5.351.03.464.168,1.093.489,1.327.518.378.817-.317,1.167-.597,3.328-2.662,6.061-2.512,9.033.548.832.857,1.589,1.785,2.401,2.662,1.218,1.315,2.365,2.711,3.807,3.793,1.785,1.34,3.172.77,3.604-1.439.255-1.302-.083-2.472-.821-3.553-.23-.337-.707-.546-.585-1.151,1.134-.19,1.722.724,2.465,1.268,2.13,1.559,4.813.408,5.172-2.242.279-2.055.005-2.334-1.982-2.104-1.322.153-2.619.014-3.803-.628-1.145-.621-2.224-1.331-3.176-2.256-1.895-1.843-3.523-4.02-6.172-4.953-.913-.322-.249-.775.108-1.013,1.415-.942,2.889-.814,4.321-.051,1.102.587,2.142,1.289,3.24,1.885.593.322,1.273.445,1.812-.109.631-.648.109-1.2-.257-1.73-.555-.804-1.202-1.553-1.684-2.397-1.71-2.995-1.204-4.259,2.318-5.335-2.266-1.072-4.362-1.819-6.683-1.569-3.7.399-6.419,2.434-8.638,5.292-2.408,3.102-2.175,3.912,1.744,5.223ZM94.709,10.176c3.055-.095,6.076.065,8.975,1.187,3.108,1.203,4.653,3.39,4.756,6.697.079,2.538-.476,4.966-1.166,7.372-.601,2.097-1.045,4.22-1.131,6.4-.146,3.704,1.422,6.879,3.273,9.913,1.883,3.085,2.55,6.073.096,9.196-.772.983.478,1.491.815,2.198.282.591.741.303,1.044-.043,2.312-2.633,4.552-6.067,2.235-10.442-4.009-7.571-5.03-15.518-1.809-23.742,1.171-2.989.328-5.633-1.825-7.935-3.564-3.811-13.352-7.122-20.19-3.74-1.15.568-1.135,1.14-.47,1.992.498.638,1.139.97,1.972.952,1.141-.025,2.282-.006,3.424-.006ZM89.562,85.318c4.539,2.249,9.147,2.801,13.412-.276,6.122-4.417,8.734-10.657,8.301-18.125-.331-5.72-2.462-10.892-5.435-15.711-2.391-3.876-4.77-7.797-8.762-10.333-.399-.253-.776-.775-1.251-.276-.375.393-.002.78.248,1.145.95,1.386,1.924,2.758,2.808,4.186,3.936,6.357,7.426,12.894,8.722,20.4,1.428,8.267-3.226,15.682-11.313,17.855-2.21.594-4.468.821-6.73,1.136ZM68.384,37.09c.938.325,1.225-.345,1.6-.737,1.461-1.528,2.799-3.182,4.337-4.625,2.3-2.158,5.175-2.201,7.543-.354.567.442,1.051,1.532,1.762,1.148.823-.445.425-1.578.362-2.412-.044-.579-.211-1.197-.493-1.703-1.824-3.27-4.688-5.274-8.137-6.532-.056-.021-.16.089-.35.202.507.385.986.722,1.435,1.097.498.416,1.014.824,1.442,1.307,1.37,1.543,1.119,2.724-.766,3.514-1.154.484-2.269.989-3.287,1.749-2.53,1.89-3.733,4.73-5.448,7.346ZM79.529,63.992c.132-.043.29-.083.44-.145,2.024-.83,4.021-.651,6.035.083.452.165,1.022.741,1.462.162.389-.512.125-1.176-.179-1.694-.904-1.542-2.214-2.659-3.799-3.468-1.858-.948-3.361-2.204-3.844-4.371-.093-.416-.249-.994-.765-.891-.457.091-.432.684-.49,1.113-.244,1.794.559,3.291,1.389,4.762.613,1.086.763,1.955-.73,2.333-.751.19-.734.704-.562,1.267.148.487.391.911,1.043.849ZM64.031,63.088c1.634-.529,3.075-.48,4.515-.466,1.14.012,2.29.118,3.417.003,1.203-.123,2.262-.623,2.21-2.107-.096-2.762-2.916-5.982-5.689-6.548-.018.098-.082.219-.046.29,1.97,3.899,1.657,4.82-2.249,6.797-.792.401-1.679.746-2.159,2.031ZM91.644,76.389c1.799-.084,3.481-.815,5.114-1.69.605-.324.878-.862.618-1.494-.282-.684-.892-.418-1.413-.311-.848.174-1.692.371-2.545.52-2.877.502-4.671-.408-5.953-3.016-.239-.485-.414-1.002-.649-1.489-.499-1.034-1.609-1.175-2.364-.906-.956.341-.111,1.193.074,1.763.613,1.89,1.766,3.471,3.134,4.881,1.052,1.084,2.323,1.766,3.984,1.741ZM85.887,49.05c-.126,1.986-.758,3.793-2.014,5.377-.31.391-.927.788-.279,1.352.549.479,1.104.317,1.588-.165,2.059-2.051,3.282-4.436,2.881-7.433-.395-2.945-2.041-5.223-4.058-7.252-.535-.538-1.059-1.869-1.971-1.13-1.129.916.279,1.61.765,2.208,1.684,2.072,2.934,4.291,3.089,7.043ZM64.057,63.881c2.018,2.061,4.436,3.659,5.341,6.478.998,3.108-1.295,5.321-2.349,8.007,2.868-.864,5.211-4.821,4.764-7.714-.55-3.555-4.2-6.817-7.756-6.771ZM64.332,12.732c1.274-.058,2.56-.254,3.821-.15,4.743.394,7.465,3.336,9.182,7.491.22.532.248,1.512,1.228,1.04.788-.379,1.588-.972.971-2.044-2.293-3.984-5.338-7.015-10.157-7.601-1.787-.217-3.506.149-5.045,1.264ZM79.171,38.553c.21-.79-.234-1.109-1.236-1.099-2.539.026-5.133,2.158-5.763,4.754-.163.672.287.734.656.864,2.536.899,6.266-1.634,6.343-4.52ZM65.544,80.867c2.418,2.201,2.844,4.697,2.04,7.459-.272.935-.661,1.836-1.018,2.745-.159.404-.473.867-.046,1.186.41.306.826-.099,1.147-.354,2.17-1.721,3.242-6.314,2.09-8.86-.745-1.648-2.065-2.404-4.213-2.176ZM63.315,104.046c2.037-.232,2.87-1.138,3.26-3.244.366-1.981-.372-4.421-1.536-5.021-.177-.091-.455-.182-.596-.106-.391.21-.15.578-.079.859.649,2.556.678,5.038-1.049,7.513ZM63.355,12.85c.008.033.005.084.026.097.033.021.081.017.123.023-.011-.055-.023-.11-.034-.165-.038.015-.077.03-.115.045Z"/></g></svg>