<?xml version="1.0" encoding="UTF-8"?><svg id="Capa_2" xmlns="http://www.w3.org/2000/svg" viewBox="0 0 600.281 455.635"><defs><style>.cls-1{fill:#fff;}.cls-2{fill:#bf9d6d;}.cls-3{fill:#0d0d11;}</style></defs><g id="Capa_7"><path class="cls-1" d="M598.851,375.858l-67.909-244.302c-4.609-16.588-19.837-28.166-37.036-28.166h-204.406c-7.107-10.259-18.698-16.408-31.553-16.408h-50.848c-8.87,0-17.657,3.207-24.529,8.87l-18.754-67.645C159.235,11.619,144.007.028,126.794.028l-49.058-.028h-.014c-5.914,0-11.841,1.402-17.158,4.067-4.706,2.332-8.829,5.553-12.216,9.578l-.042.028c-.111.139-.222.264-.333.403l-.042.042c-.125.139-.236.278-.361.416l-.042.042c-.111.125-.222.264-.347.389l-.028.042c-.125.139-.25.278-.361.417l-.055.056c-.111.125-.222.264-.333.389l-.042.055c-.125.125-.236.264-.361.403l-.042.055c-.111.125-.222.25-.347.389l-.028.042c-.125.139-.236.278-.361.403l-.028.042c-.125.139-.236.278-.361.416l-.042.042c-.111.125-.236.264-.347.402l-.042.042c-.125.139-.236.278-.347.403l-.042.042c-.111.139-.236.278-.361.416l-.028.042c-.125.125-.236.264-.361.402l-.042.056c-.125.125-.236.264-.347.403l-.056.042c-.111.139-.222.264-.333.403l-.042.042c-.125.139-.236.264-.347.403l-.042.055c-.125.125-.236.264-.361.389l-.028.042c-.125.139-.236.278-.361.417l-.042.042c-.111.139-.236.264-.347.402l-.042.056c-.125.125-.236.264-.347.402l-.042.042c-.125.125-.236.264-.347.403l-.028.028c-.125.139-.25.278-.375.417l-.028.042c-.125.139-.236.278-.361.417l-.028.028c-.125.139-.236.278-.361.417l-.042.042c-.111.139-.236.264-.347.403l-.042.042c-.111.139-.236.278-.361.416l-.042.055c-.111.125-.222.25-.347.389l-.028.042c-.125.139-.236.264-.361.403l-.028.042c-.125.139-.236.278-.361.416l-.028.028c-.125.139-.25.278-.361.416l-.042.042c-.125.139-.236.278-.347.403l-.042.042c-.125.139-.236.278-.347.403l-.042.055c-.125.125-.236.264-.361.403l-.028.042c-.125.139-.25.278-.361.417l-.042.042c-.111.125-.236.264-.347.403l-.055.056c-.111.125-.236.264-.347.402l-.042.042c-.111.125-.222.264-.347.389l-.028.042c-.125.139-.236.278-.361.417l-.028.028c-.125.139-.236.278-.361.417l-.042.042c-.111.139-.236.278-.347.403l-.042.042c-.111.139-.236.278-.361.417l-.028.042c-.125.125-.236.264-.361.403l-.028.042c-.125.139-.236.264-.361.402l-.028.042c-.125.139-.236.278-.361.416l-.042.042c-.111.139-.236.264-.347.403l-.028.028c-.125.139-.236.278-.361.417l-.042.042c-.125.139-.236.278-.347.416l-.028.028c-.125.139-.25.278-.375.417l-.042.042c-.111.139-.236.278-.347.403l-.042.055c-.111.139-.236.264-.347.403l-.056.055c-.111.125-.222.264-.333.389l-.028.028c-.125.139-.25.291-.375.43l-.042.056c-.111.125-.236.25-.347.389l-.014.028c-.125.139-.25.278-.375.416l-.028.042c-.125.139-.25.278-.361.417l-.056.056c-.111.125-.222.264-.333.389l-.042.042c-.125.139-.236.278-.361.417l-.042.042c-.111.139-.236.264-.347.403l-.042.042c-.111.139-.236.264-.347.403l-.028.042c-.125.139-.25.264-.361.402l-.042.042c-.111.139-.236.278-.361.416l-.028.028c-.111.139-.236.278-.347.417l-.042.042c-.125.139-.236.278-.361.416l-.028.028c-.125.139-.236.278-.361.416l-.028.028c-.125.139-.25.278-.361.417l-.042.042c-.111.139-.236.278-.347.417l-.042.042c-.125.125-.236.264-.361.403l-.028.042c-.125.125-.236.264-.361.403l-.028.028c-.125.139-.236.278-.361.43l-.028.028c-.125.139-.25.278-.361.416l-.028.028c-.125.139-.25.278-.361.416l-.042.042c-.111.139-.236.278-.361.417l-.028.028c-.111.139-.236.278-.361.417l-.028.042c-.125.125-.25.264-.361.403l-.042.055c-.111.125-.236.264-.347.403l-.055.056c-.111.125-.222.25-.333.389l-.028.028c-.125.139-.25.278-.375.416l-.014.028c-.125.139-.25.291-.375.43l-.028.028c-.125.139-.25.278-.361.417l-.014.014c-.125.153-.25.291-.375.43v.014c-.139.139-.264.292-.402.444l-.028.028c-.111.139-.236.278-.361.417l-.028.028c-.111.139-.236.278-.361.43l-.042.042c-.125.139-.236.278-.347.403l-.042.042c-.111.125-.236.264-.347.403l-.028.028c-.125.139-.25.278-.361.43l-.028.028c-.125.139-.25.278-.375.416v.014c-.139.139-.264.292-.389.43l-.028.028c-.125.139-.236.292-.361.43l-.042.042c-.111.125-.236.264-.347.403l-.042.042c-.125.139-.236.264-.347.403l-.042.042c-.125.139-.236.278-.361.417l-.014.014c-.125.153-.25.291-.375.43l-.028.028c-.111.139-.236.278-.361.416l-.014.028c-.125.139-.25.278-.375.43l-.014.014c-.125.139-.25.278-.375.43l-.042.042c-.125.139-.236.278-.361.403l-.042.055c-.111.125-.222.264-.347.402l-.014.014c-.125.139-.25.292-.375.43l-.042.042c-.111.139-.236.278-.361.417-.638.722-1.18,1.402-1.68,2.054C.485,69.935-1.791,82.221,1.443,93.437l69.005,240.706c3.235,11.341,11.661,20.267,22.238,24.46-.055.083-.125.153-.18.236-7.135,9.384-9.412,21.294-6.219,32.677l10.3,36.8c4.498,16.089,19.323,27.319,36.023,27.319h151.642c7.232,0,14.27-2.096,20.378-6.052l.056-.028c.139-.083.291-.18.43-.264l.069-.042c.139-.097.278-.181.417-.264l.069-.042c.139-.097.292-.181.43-.278l.056-.027c.153-.097.305-.181.444-.278l.056-.028c.153-.097.291-.181.444-.278l.042-.028c.153-.097.306-.194.458-.278l.056-.042c.153-.097.291-.18.43-.278l.069-.042c.153-.083.291-.166.43-.264l.069-.042c.153-.083.291-.18.43-.264l.069-.042c.139-.097.292-.18.43-.264l.056-.042c.153-.083.291-.181.444-.278l.056-.028c.153-.097.291-.181.43-.278l.069-.041c.139-.083.292-.181.43-.264l.069-.042c.153-.097.291-.18.43-.277l.069-.028c.139-.097.278-.181.417-.264l.069-.042c.139-.097.291-.18.43-.278l.069-.042c.139-.083.292-.166.43-.264l.069-.042c.139-.083.291-.18.43-.264l.056-.042c.153-.083.305-.18.444-.278l.069-.042c.139-.083.278-.167.417-.264l.069-.042c.153-.083.291-.181.444-.264l.055-.041c.153-.083.292-.181.43-.264,3.498,3.998,7.815,7.218,12.605,9.411,4.803,2.207,10.092,3.415,15.561,3.415h48.294c6.635,0,13.146-1.749,18.823-5.067.18-.097.361-.208.541-.305.18-.111.361-.208.541-.305.18-.111.361-.208.541-.319.167-.097.347-.195.527-.305.181-.097.361-.208.542-.305.18-.097.361-.208.527-.306.181-.097.361-.208.542-.305.18-.111.361-.208.527-.305.181-.111.361-.208.542-.319.18-.097.361-.208.541-.305s.361-.208.541-.305c.18-.111.347-.208.528-.305.18-.111.361-.208.541-.319.18-.097.361-.195.541-.305.18-.097.347-.208.527-.306.181-.097.361-.208.542-.305.18-.111.361-.208.541-.319.181-.097.347-.194.528-.305.18-.097.361-.194.541-.305.181-.097.361-.208.541-.305.18-.111.347-.208.528-.305.18-.111.361-.208.541-.319.18-.097.361-.195.528-.305.194-.097.375-.208.555-.306.167-.111.347-.208.528-.305.18-.111.361-.208.541-.319.167-.097.347-.194.528-.305.18-.097.361-.194.541-.305.181-.097.361-.208.528-.305.18-.097.361-.208.541-.305.056-.042.125-.069.181-.111,6.982,8.912,17.838,14.423,29.471,14.423h47.336c6.469,0,12.813-1.652,18.379-4.803l.042-.014c.181-.097.347-.181.514-.278l.055-.028c.18-.097.347-.18.514-.278l.069-.028c.167-.097.347-.18.514-.278l.055-.028c.181-.097.347-.195.528-.291l.055-.028c.18-.083.347-.18.528-.278l.056-.028c.167-.097.347-.181.514-.278l.055-.028c.181-.097.361-.181.528-.278l.055-.041c.18-.083.347-.181.514-.264l.069-.042c.167-.083.347-.18.514-.278l.055-.027c.181-.083.361-.181.528-.278l.055-.028c.18-.097.347-.18.528-.278l.056-.028c.167-.097.347-.18.514-.278l.055-.028c.181-.097.347-.195.528-.278l.055-.042c.18-.083.347-.18.528-.278l.056-.028c.167-.083.347-.181.514-.278l.069-.028c.167-.097.347-.181.514-.278l.055-.041c.18-.083.347-.181.528-.278l.056-.028c.18-.083.347-.18.514-.278l.069-.027c.167-.097.347-.181.514-.278l.069-.028c.167-.097.333-.18.514-.278l.056-.028c.18-.097.347-.18.514-.278l.055-.028c.181-.097.361-.195.528-.291l.069-.028c.167-.083.333-.18.514-.278l.056-.028c.18-.097.347-.181.514-.278l.055-.028c.181-.097.361-.181.528-.278l.069-.041c.167-.083.333-.181.5-.264l.069-.042c.18-.083.347-.18.514-.278l.069-.027c.167-.083.347-.181.514-.278l.055-.028c.18-.097.347-.18.528-.278l.056-.028c.18-.097.347-.18.514-.278l.055-.042c.181-.083.361-.181.528-.278l.069-.028c.167-.083.333-.18.514-.278l.056-.028c.18-.097.347-.181.528-.278l.055-.028c.181-.097.347-.181.514-.278l.069-.041c.167-.083.333-.181.5-.264l.056-.028c.18-.097.361-.195.528-.292l.069-.027c.167-.083.347-.181.514-.278l.069-.028c.167-.097.333-.18.5-.278l.069-.028c.167-.097.347-.18.514-.278l.055-.028c.181-.097.347-.195.528-.278l.055-.042c.18-.083.347-.18.528-.278l.056-.028c.18-.097.347-.181.514-.278l.055-.028c.181-.097.347-.181.528-.278l.055-.041c.18-.083.347-.181.528-.264l.056-.042c.18-.083.347-.18.514-.278l.069-.027c.167-.083.333-.181.514-.278l.055-.028c.167-.083.347-.18.528-.278l.056-.028c.18-.097.347-.194.528-.278l.055-.042c.167-.083.347-.181.514-.264l.055-.028c.167-.097.347-.194.528-.291l.056-.028c.18-.097.347-.181.528-.278l.055-.028c.167-.097.333-.181.514-.278l.055-.028c.167-.097.347-.18.528-.277l.056-.042c.18-.083.347-.18.528-.278l.055-.027c.167-.083.333-.181.514-.278l.055-.028c.18-.083.347-.18.528-.278l.056-.028c.167-.097.347-.18.514-.278l.055-.028c.181-.097.361-.195.528-.291l.069-.028c.167-.083.333-.18.5-.278l.069-.028c.167-.083.347-.181.514-.278l.055-.028c.181-.097.347-.181.528-.278l.055-.028c.18-.097.347-.18.528-.277l.056-.042c.167-.083.347-.18.514-.264l.055-.041c.181-.083.347-.181.528-.278l.055-.028c.18-.097.347-.18.528-.278l.056-.028c.18-.097.347-.18.514-.278l.055-.028c.181-.097.347-.18.528-.278l.055-.042c.18-.083.347-.18.528-.278l.056-.028c.18-.097.347-.181.514-.278l.069-.028c.167-.097.347-.181.514-.278l.055-.028c.18-.097.347-.18.514-.277l.069-.042c.167-.083.347-.18.514-.264l.069-.041c.167-.083.347-.181.514-.278l.069-.028c.167-.097.333-.18.5-.278l.069-.028c.167-.097.347-.18.514-.278l.055-.028c.181-.097.347-.18.528-.278l.055-.042c.18-.083.347-.18.528-.278l.056-.028c.18-.083.347-.181.514-.278l.055-.028c.181-.083.347-.181.528-.278l.055-.028c.167-.097.347-.18.528-.277l.056-.028c.167-.097.347-.195.514-.292l.055-.027c.181-.083.361-.181.528-.278l.055-.028c.18-.097.347-.18.528-.278l.056-.028c.167-.097.347-.18.514-.278l.055-.028c.181-.097.347-.18.528-.278l.055-.028c.167-.097.347-.194.514-.278l.056-.042c.18-.083.361-.181.541-.278l.055-.028c.167-.097.347-.181.514-.278l.055-.028c.18-.097.347-.18.528-.277l.056-.042c.18-.083.347-.18.514-.264l.055-.041c.181-.083.347-.181.528-.278l.042-.028c.18-.083.361-.18.527-.278l.056-.028c.18-.083.361-.18.528-.278l.055-.028c.181-.097.361-.195.528-.278l.055-.042c.18-.083.347-.18.528-.278l.056-.028c.167-.083.347-.181.514-.264l.055-.041c.181-.083.347-.181.528-.278l.069-.028c.167-.097.333-.18.514-.277l.056-.042c.167-.083.347-.18.514-.264l.069-.041c.181-.097.375-.195.555-.292,4.817-2.623,8.94-6.163,12.271-10.564,7.33-9.648,9.676-21.877,6.427-33.566ZM584.692,403.551c-2.54,3.332-5.691,6.011-9.231,7.927-.194.111-.389.208-.583.305-.194.111-.389.208-.583.305-.18.111-.375.208-.569.305-.194.111-.389.208-.583.319-.194.097-.389.195-.583.305-.18.111-.375.208-.569.305-.194.111-.389.208-.583.306-.194.111-.389.208-.583.305-.18.111-.375.208-.569.319-.194.111-.389.194-.583.305-.194.111-.389.208-.583.305-.18.111-.375.208-.569.305-.194.111-.389.208-.583.319-.194.097-.389.195-.583.305-.18.111-.375.208-.569.305-.194.111-.389.208-.583.306-.194.111-.389.208-.569.305-.194.111-.389.208-.583.319-.194.111-.389.194-.583.305-.194.111-.389.208-.583.305-.18.111-.375.208-.569.305-.194.111-.389.208-.583.319-.181.097-.389.195-.583.305-.18.111-.375.208-.569.305-.194.111-.389.208-.583.306-.194.111-.389.208-.583.305-.18.111-.375.208-.569.319-.194.097-.389.194-.583.305-.181.111-.389.208-.583.305-.18.111-.375.208-.569.305-.194.111-.389.208-.583.319-.181.097-.389.195-.569.305-.194.111-.389.195-.583.305-.194.111-.389.208-.583.306-.181.111-.389.208-.569.305-.194.111-.389.208-.583.319-.194.097-.389.194-.583.305-.181.111-.389.208-.569.305-.194.111-.389.208-.583.305-.194.111-.389.208-.583.305-.181.111-.389.208-.569.319-.194.097-.389.195-.583.305-.194.111-.389.208-.583.306-.181.111-.389.208-.569.305-.194.111-.389.208-.583.319-.194.097-.389.194-.583.305-.181.111-.389.208-.569.305-.194.111-.389.208-.583.305-.194.111-.389.208-.583.305-.181.111-.389.208-.569.319-.194.097-.389.195-.583.305-.194.111-.389.208-.583.306-.181.111-.389.208-.569.305-.194.111-.389.208-.583.319-.194.097-.389.194-.583.305-.181.111-.375.194-.569.305s-.389.208-.583.305c-.194.111-.389.208-.583.305-.181.111-.375.208-.569.319-.194.097-.389.195-.583.305-.194.111-.389.208-.583.306-.181.111-.389.208-.569.305-.194.111-.389.208-.583.305-.194.111-.389.208-.583.319-.181.097-.375.194-.569.305s-.389.208-.583.305c-.194.111-.389.208-.583.305-.181.111-.375.208-.569.319-.194.097-.389.195-.583.305-.194.111-.389.208-.583.306-.181.111-.375.208-.569.305-.194.111-.389.208-.583.305-.194.111-.389.208-.583.319-.181.097-.375.194-.569.305s-.389.208-.583.305c-.194.111-.389.208-.583.305-.181.111-.375.208-.569.319-.194.097-.389.195-.583.305-.194.111-.389.195-.583.306-.181.111-.375.208-.569.305-.194.111-.389.208-.583.305-.194.111-.389.208-.583.319-.181.097-.375.194-.569.305s-.389.208-.583.305c-.194.111-.389.208-.583.305-.181.111-.375.208-.569.305-.194.111-.389.208-.583.319-.194.097-.389.195-.583.306-.181.111-.375.208-.569.305-.194.111-.389.208-.583.305-.194.111-.389.208-.583.319-.181.097-.375.194-.569.305s-.389.208-.583.305c-.194.111-.389.208-.569.305-.195.111-.389.208-.583.305-.194.111-.389.208-.583.319-.194.097-.389.195-.569.306-.195.111-.389.208-.583.305-.194.111-.389.208-.583.305-.194.111-.389.208-.569.319-4.109,2.332-8.801,3.595-13.715,3.595h-47.336c-11.563,0-21.891-7.274-25.917-17.963-.167.111-.347.208-.514.306-.18.111-.361.208-.541.305-.18.111-.361.208-.541.306-.167.111-.347.208-.528.319-.18.097-.361.208-.541.305s-.347.208-.528.305c-.18.111-.361.208-.541.305-.18.111-.361.208-.541.319-.181.097-.347.194-.528.305-.18.097-.361.208-.541.306-.181.097-.361.208-.542.305-.18.111-.347.208-.527.306-.18.111-.361.208-.541.319-.18.097-.361.208-.541.305s-.347.208-.528.305c-.18.111-.361.208-.541.305-.18.111-.361.208-.541.305-.181.111-.347.208-.528.319-.18.097-.361.208-.541.306-.181.097-.361.208-.542.305-.166.111-.347.208-.527.306-.181.111-.361.208-.542.319-.18.097-.361.208-.541.305-.167.097-.347.208-.528.305-.18.111-.361.208-.541.305-.18.111-.347.208-.528.305-.18.111-.361.208-.541.319-.18.097-.361.208-.541.306-.181.097-.347.208-.528.305-.18.111-.361.208-.541.306-.181.111-.361.208-.542.319-.18.097-.347.194-.527.305-.181.097-.361.208-.542.305-.18.097-.361.208-.541.305-.18.111-.347.208-.528.305-.18.111-.361.208-.541.319-.18.097-.361.208-.541.306-.18.097-.347.208-.528.305-.18.111-.361.208-.541.306-.181.111-.361.208-.542.305-.166.111-.347.208-.527.319-.181.097-.361.208-.542.305-.18.097-.361.208-.541.305-.167.111-.347.208-.528.305-.18.111-.361.208-.541.319-.18.097-.361.208-.541.306-4.164,2.443-8.968,3.775-13.993,3.775h-48.294c-10.966,0-20.836-6.566-25.237-16.366-.056.027-.111.055-.153.097-.167.097-.333.194-.5.305-.167.097-.333.208-.5.306-.167.111-.333.208-.5.305-.153.111-.333.208-.486.305-.167.111-.333.208-.5.319-.166.111-.333.208-.5.305-.167.111-.333.208-.5.305-.166.111-.333.208-.5.305-.153.111-.333.208-.486.32-.167.097-.333.208-.5.305-.167.111-.333.208-.5.306-.167.111-.333.208-.5.305-.166.111-.333.208-.5.319-.153.097-.333.208-.486.305-.166.111-.333.208-.5.305-.167.111-.333.208-.5.305-.167.111-.333.208-.5.319-.167.097-.333.208-.5.306-.153.111-.319.208-.486.305-.166.111-.333.208-.5.306-.167.111-.333.208-.5.319-.166.097-.333.194-.5.305-.167.111-.333.208-.5.305-.153.111-.319.208-.486.305-.167.111-.333.208-.5.319-.167.097-.333.194-.5.305-.166.111-.333.208-.5.306-.167.111-.333.208-.5.305-.153.111-.319.208-.486.319-.167.097-.333.195-.5.306s-.333.208-.5.305c-.167.111-.333.208-.5.305-.153.111-.333.208-.5.319-.153.097-.319.195-.486.305-.167.111-.333.208-.5.305-.166.111-.333.208-.5.306-.167.111-.333.208-.5.319-.153.097-.319.194-.486.305-4.47,2.915-9.745,4.539-15.187,4.539h-151.642c-12.368,0-23.335-8.315-26.666-20.225l-10.3-36.8c-2.36-8.412-.68-17.241,4.609-24.195,1.416-1.86,3.026-3.498,4.803-4.928.139-.111.278-.222.416-.333s.291-.222.43-.333c.139-.125.278-.236.417-.347.139-.111.291-.222.43-.333.139-.125.278-.236.416-.347.139-.111.292-.222.43-.333.139-.111.278-.222.417-.333.139-.125.291-.236.43-.347.139-.111.278-.222.43-.333.139-.125.278-.236.416-.347.139-.111.291-.222.43-.333.139-.125.278-.236.417-.347.139-.111.291-.222.43-.333.139-.125.278-.222.416-.347.153-.111.292-.222.43-.333.139-.111.278-.222.43-.333.139-.125.278-.236.417-.347.139-.111.291-.222.43-.333.139-.125.278-.236.416-.347.139-.111.291-.222.43-.333.139-.111.278-.222.417-.347.153-.111.291-.222.43-.333.139-.111.278-.222.43-.333.139-.125.278-.236.416-.347.042-.028.083-.069.125-.097l-8.981-.014c-12.285-.014-23.224-8.259-26.597-20.059L10.772,90.758c-2.388-8.315-.708-17.394,4.498-24.307.417-.541.847-1.069,1.305-1.569.125-.153.25-.292.375-.444.139-.153.264-.306.402-.444.125-.153.25-.305.389-.458.125-.153.264-.291.389-.444.125-.153.264-.305.389-.444.125-.153.264-.305.389-.458.139-.153.264-.291.403-.444.125-.153.25-.305.389-.444.125-.153.264-.305.389-.458.125-.153.264-.291.389-.444.125-.153.264-.306.389-.458.139-.139.264-.292.403-.444.125-.153.25-.291.389-.444.125-.153.264-.305.389-.444.125-.153.264-.305.389-.458.125-.153.264-.291.389-.444.139-.153.264-.305.403-.458.125-.153.25-.292.389-.444.125-.153.264-.292.389-.444.125-.153.264-.305.389-.458.125-.139.264-.291.389-.444.139-.153.264-.305.403-.458.125-.139.25-.291.389-.444.125-.153.264-.291.389-.444s.264-.305.389-.458c.139-.153.264-.291.402-.444.125-.153.25-.305.389-.444.125-.153.264-.306.389-.458.125-.153.264-.292.389-.444.125-.153.264-.305.389-.444.139-.153.264-.305.403-.458.125-.153.25-.291.389-.444.125-.153.264-.305.389-.444.125-.153.264-.305.389-.458.125-.153.264-.292.389-.444.139-.153.264-.306.403-.444.125-.153.25-.305.389-.458.125-.153.264-.291.389-.444.125-.153.264-.305.389-.444.125-.153.264-.305.389-.458.139-.153.264-.291.402-.444.125-.153.25-.305.389-.444.125-.153.264-.305.389-.458.125-.153.264-.291.389-.444s.264-.306.389-.444c.139-.153.264-.306.403-.458.125-.153.25-.291.389-.444.125-.153.264-.305.389-.458s.264-.291.389-.444c.125-.153.264-.305.389-.444.139-.153.264-.305.403-.458.125-.153.25-.292.389-.444.125-.153.264-.306.389-.444.125-.153.264-.305.389-.458.125-.153.264-.291.389-.444.139-.153.264-.305.403-.444.125-.153.25-.305.389-.458.125-.153.264-.291.389-.444.125-.153.264-.305.389-.444.125-.153.264-.305.389-.458.139-.153.264-.291.403-.444.125-.153.25-.306.389-.444.125-.153.264-.306.389-.458s.264-.291.389-.444c.125-.153.264-.305.389-.458.139-.139.264-.291.403-.444.125-.153.25-.291.389-.444.125-.153.264-.305.389-.458.125-.139.264-.292.389-.444.125-.153.264-.292.389-.444.139-.153.264-.305.402-.458.125-.153.25-.291.389-.444.125-.153.264-.305.389-.444.125-.153.264-.305.389-.458.125-.153.264-.291.389-.444.139-.153.264-.305.403-.444.125-.153.25-.305.389-.458.125-.153.264-.291.389-.444.125-.153.264-.306.389-.444.125-.153.264-.306.389-.458.139-.153.264-.291.402-.444.125-.153.25-.305.389-.444.125-.153.25-.305.389-.458.125-.153.264-.291.389-.444.125-.153.264-.305.389-.444.139-.153.264-.306.402-.458.125-.153.25-.292.389-.444.125-.153.264-.305.389-.444.125-.153.264-.305.389-.458.125-.153.264-.291.389-.444.139-.153.264-.305.403-.458.125-.139.25-.291.389-.444.125-.153.264-.292.389-.444.125-.153.264-.305.389-.458.125-.153.264-.291.389-.444.139-.153.264-.292.402-.444.125-.153.25-.306.389-.458.125-.153.264-.291.389-.444.125-.153.264-.305.389-.444.125-.153.264-.305.389-.458,2.554-3.026,5.705-5.483,9.203-7.218,3.942-1.971,8.329-3.04,12.813-3.04h.014l49.058.028c12.854,0,24.237,8.662,27.666,21.059l23.044,83.164c.014-.014.028-.014.028-.028.153-.139.291-.278.444-.417.139-.139.292-.278.43-.416.153-.139.292-.278.444-.416.153-.139.291-.292.444-.417.139-.139.291-.291.43-.43.153-.139.292-.278.444-.417.139-.139.291-.278.43-.416.153-.139.291-.278.444-.416.153-.139.291-.278.444-.417.139-.139.291-.278.43-.417.153-.139.291-.291.444-.417.139-.153.291-.291.444-.43.139-.139.278-.278.43-.416.153-.139.292-.278.444-.417.139-.139.291-.278.43-.417.153-.139.291-.278.444-.416.139-.139.292-.292.444-.417.139-.153.278-.291.43-.43.153-.139.291-.278.444-.417.139-.139.291-.278.43-.417.153-.139.292-.278.444-.416.139-.139.292-.278.444-.417,5.303-5.095,12.466-8.037,19.906-8.037h50.848c11.3,0,21.267,6.441,25.972,16.408h209.987c12.854,0,24.237,8.648,27.68,21.045l67.909,244.316c2.429,8.732.68,17.866-4.803,25.084Z"/><path class="cls-3" d="M589.495,378.467l-67.909-244.316c-3.443-12.396-14.826-21.045-27.68-21.045h-209.987c-4.706-9.967-14.673-16.408-25.972-16.408h-50.848c-7.441,0-14.603,2.943-19.906,8.037-.153.139-.305.278-.444.417-.153.139-.291.278-.444.416-.139.139-.292.278-.43.417-.153.139-.292.278-.444.417-.153.139-.291.278-.43.43-.153.125-.305.278-.444.417-.153.139-.291.278-.444.416-.139.139-.291.278-.43.417-.153.139-.291.278-.444.417-.153.139-.291.278-.43.416-.153.139-.305.278-.444.43-.153.125-.291.278-.444.417-.139.139-.291.278-.43.417-.153.139-.292.278-.444.417-.153.139-.292.278-.444.416-.139.139-.291.278-.43.416-.153.139-.291.278-.444.417-.139.139-.292.291-.43.43-.153.125-.292.278-.444.417-.153.139-.291.278-.444.416-.139.139-.291.278-.43.416-.153.139-.292.278-.444.417,0,.014-.014.014-.028.028l-23.044-83.164c-3.429-12.396-14.812-21.059-27.666-21.059l-49.058-.028h-.014c-4.484,0-8.87,1.069-12.813,3.04-3.498,1.735-6.649,4.192-9.203,7.218-.125.153-.264.305-.389.458-.125.139-.264.292-.389.444-.125.153-.264.292-.389.444-.139.153-.264.305-.389.458-.139.153-.264.291-.402.444-.125.153-.264.291-.389.444-.125.153-.264.305-.389.458-.125.153-.264.291-.389.444-.139.153-.264.305-.389.444-.139.153-.264.305-.403.458-.125.153-.264.291-.389.444-.125.153-.264.306-.389.458-.125.139-.264.292-.389.444-.139.153-.264.291-.389.444-.139.153-.264.305-.402.458-.125.139-.264.291-.389.444-.125.153-.264.291-.389.444-.139.153-.264.305-.389.458-.139.139-.264.292-.389.444-.139.153-.264.292-.402.444-.125.153-.264.305-.389.458-.125.139-.264.291-.389.444-.125.153-.264.291-.389.444-.139.153-.264.305-.389.458-.139.139-.264.291-.403.444-.125.153-.264.292-.389.444-.125.153-.264.305-.389.458-.125.139-.264.291-.389.444-.139.153-.264.292-.389.444-.139.153-.264.306-.402.458-.125.153-.264.291-.389.444-.125.153-.264.305-.389.444-.125.153-.264.305-.389.458-.139.153-.264.291-.389.444-.139.153-.264.305-.403.444-.125.153-.264.306-.389.458-.125.153-.264.292-.389.444s-.264.305-.389.458c-.139.139-.264.291-.389.444-.139.153-.264.291-.403.444-.125.153-.264.305-.389.458-.125.139-.264.291-.389.444-.125.153-.264.292-.389.444-.139.153-.264.305-.389.458-.139.139-.264.291-.403.444-.125.153-.264.292-.389.444-.125.153-.264.306-.389.458-.125.139-.264.291-.389.444-.139.153-.264.291-.389.444-.139.153-.264.305-.403.458-.125.139-.264.291-.389.444-.125.153-.264.291-.389.444s-.264.306-.389.458c-.139.153-.264.292-.389.444-.139.153-.264.305-.403.458-.125.139-.264.291-.389.444s-.264.291-.389.444c-.125.153-.264.305-.389.458-.139.139-.264.291-.389.444-.139.153-.264.292-.402.444-.125.153-.264.305-.389.458-.125.139-.264.291-.389.444-.125.153-.264.292-.389.444-.139.153-.264.306-.389.458-.139.139-.264.291-.403.444-.125.153-.264.291-.389.444-.125.153-.264.305-.389.458-.125.139-.264.291-.389.444-.139.153-.264.291-.389.444-.139.153-.264.306-.403.458-.125.139-.264.292-.389.444-.125.153-.264.291-.389.444-.125.153-.264.305-.389.458-.139.139-.264.291-.389.444-.139.153-.264.291-.402.444-.125.153-.264.305-.389.458s-.264.292-.389.444c-.139.153-.264.305-.389.444-.139.153-.264.305-.403.458-.125.153-.264.306-.389.444-.125.153-.264.306-.389.458-.125.153-.264.291-.389.444-.139.153-.264.291-.389.444-.139.153-.264.305-.403.458-.125.153-.264.291-.389.444-.125.153-.264.305-.389.458-.125.139-.264.292-.389.444-.139.153-.264.292-.389.444-.139.153-.264.305-.403.444-.125.153-.264.305-.389.458-.125.153-.264.291-.389.444-.125.153-.264.305-.389.458-.139.139-.264.291-.389.444-.139.153-.264.292-.403.444-.125.153-.264.305-.389.458-.125.139-.264.291-.389.444-.125.153-.264.292-.389.444-.139.153-.264.306-.389.458-.139.139-.264.291-.402.444-.125.153-.25.291-.375.444-.458.5-.888,1.027-1.305,1.569-5.206,6.913-6.885,15.992-4.498,24.307l69.005,240.706c3.373,11.799,14.312,20.045,26.597,20.059l8.981.014c-.042.028-.083.069-.125.097-.139.111-.278.222-.416.347-.153.111-.292.222-.43.333-.139.111-.278.222-.43.333-.139.125-.278.236-.417.347-.139.111-.291.222-.43.333-.139.111-.278.222-.416.347-.139.111-.292.222-.43.333-.139.111-.278.222-.417.347-.153.111-.291.222-.43.333-.139.111-.278.222-.43.333-.139.125-.278.222-.416.347-.139.111-.292.222-.43.333-.139.111-.278.222-.417.347-.139.111-.291.222-.43.333-.139.111-.278.222-.416.347-.153.111-.292.222-.43.333-.139.111-.291.222-.43.347-.139.111-.278.222-.417.333-.139.111-.291.222-.43.333-.139.111-.278.222-.416.347-.139.111-.292.222-.43.333-.139.111-.278.222-.417.347-.139.111-.291.222-.43.333s-.278.222-.416.333c-1.777,1.43-3.387,3.068-4.803,4.928-5.289,6.954-6.969,15.783-4.609,24.195l10.3,36.8c3.332,11.911,14.298,20.225,26.666,20.225h151.642c5.442,0,10.717-1.624,15.187-4.539.167-.111.333-.208.486-.305.167-.111.333-.208.5-.319.166-.097.333-.195.5-.306.167-.097.333-.194.5-.305.166-.111.333-.208.486-.305.167-.111.347-.208.5-.319.167-.097.333-.195.5-.305.167-.097.333-.194.5-.305s.333-.208.5-.306c.166-.111.333-.208.486-.319.167-.097.333-.194.5-.305.166-.097.333-.195.5-.306.167-.111.333-.208.5-.305.167-.111.333-.208.5-.319.167-.097.333-.194.486-.305.167-.097.333-.195.5-.305.166-.111.333-.208.5-.305.167-.111.333-.208.5-.319.166-.097.333-.195.5-.306.167-.097.333-.194.486-.305.167-.097.333-.208.5-.306.167-.111.333-.208.5-.319.167-.097.333-.194.5-.305.167-.097.333-.194.5-.305.153-.097.333-.208.486-.305.166-.111.333-.208.5-.319.167-.097.333-.195.5-.305.167-.097.333-.195.5-.306.167-.097.333-.208.5-.305.153-.111.333-.208.486-.32.167-.097.333-.194.5-.305.167-.097.333-.194.5-.305.166-.097.333-.194.5-.305.167-.111.333-.208.5-.319.153-.097.333-.195.486-.305.167-.097.333-.195.5-.305.167-.097.333-.208.5-.306.167-.111.333-.208.5-.305.042-.042.097-.07.153-.097,4.4,9.8,14.27,16.366,25.237,16.366h48.294c5.025,0,9.828-1.333,13.993-3.775.18-.097.361-.208.541-.306.18-.111.361-.208.541-.319.181-.097.361-.194.528-.305.18-.097.361-.208.541-.305.181-.097.361-.208.542-.305.18-.111.361-.208.527-.319.181-.097.361-.195.542-.305.18-.097.361-.195.541-.306.18-.097.347-.208.528-.305.18-.097.361-.208.541-.306.18-.111.361-.208.541-.319.18-.097.347-.194.528-.305.18-.097.361-.208.541-.305.181-.097.361-.208.542-.305.18-.111.347-.208.527-.305.181-.111.361-.208.542-.319.18-.097.361-.195.541-.306.181-.097.347-.208.528-.305.18-.097.361-.208.541-.306.18-.111.361-.208.541-.319.18-.097.347-.194.528-.305.18-.097.361-.194.541-.305.18-.097.361-.208.528-.305.18-.097.361-.208.541-.305.181-.111.361-.208.542-.319.18-.097.361-.195.527-.306.181-.097.361-.208.542-.305.18-.097.361-.208.541-.306.181-.111.347-.208.528-.319.18-.097.361-.194.541-.305.18-.097.361-.194.541-.305.18-.097.347-.208.528-.305s.361-.208.541-.305c.18-.111.361-.208.541-.319.18-.097.347-.195.527-.306.181-.097.361-.208.542-.305.18-.097.361-.208.541-.306.181-.111.347-.208.528-.305.18-.111.361-.208.541-.319.181-.097.361-.194.541-.305.18-.097.347-.208.528-.305s.361-.208.541-.305c.18-.111.361-.208.528-.319.18-.097.361-.195.541-.306.18-.097.361-.194.541-.305.167-.097.347-.195.514-.306,4.026,10.689,14.354,17.963,25.917,17.963h47.336c4.914,0,9.606-1.263,13.715-3.595.18-.111.375-.208.569-.319.194-.097.389-.195.583-.305.194-.097.389-.195.583-.305.18-.111.375-.208.569-.306.194-.111.389-.208.583-.319.194-.097.389-.194.583-.305.18-.097.375-.194.569-.305.194-.097.389-.194.583-.305s.389-.208.569-.305c.194-.111.389-.208.583-.319.194-.097.389-.195.583-.305.194-.097.389-.195.569-.305.194-.111.389-.208.583-.306.194-.111.389-.208.583-.319.194-.097.389-.194.569-.305.194-.097.389-.194.583-.305.194-.097.389-.194.583-.305s.389-.208.569-.305c.194-.111.389-.208.583-.319.194-.097.389-.195.583-.305.194-.097.389-.195.569-.305.194-.111.389-.195.583-.306.194-.111.389-.208.583-.305.194-.111.389-.208.569-.319.194-.097.389-.194.583-.305.194-.097.389-.194.583-.305s.389-.208.569-.305c.194-.111.389-.208.583-.319.194-.097.389-.195.583-.305.194-.097.389-.195.569-.305.194-.097.389-.195.583-.306.194-.111.389-.208.583-.305.194-.111.389-.208.569-.319.194-.097.389-.194.583-.305.194-.097.389-.194.583-.305s.389-.208.569-.305c.194-.111.389-.208.583-.319.194-.097.389-.195.583-.305.18-.097.389-.195.569-.305.194-.097.389-.195.583-.306.194-.111.389-.208.583-.305.194-.111.389-.208.569-.319.194-.097.389-.194.583-.305.194-.097.389-.194.583-.305s.389-.194.569-.305c.194-.111.389-.208.583-.305.194-.111.389-.208.583-.319.18-.097.389-.195.569-.305.194-.097.389-.195.583-.306.194-.111.389-.208.583-.305.18-.111.389-.208.569-.319.194-.097.389-.194.583-.305.194-.097.389-.194.583-.305.18-.097.389-.194.569-.305.194-.111.389-.208.583-.305.194-.111.389-.208.583-.319.18-.097.389-.195.569-.305.194-.097.389-.195.583-.306.194-.111.389-.208.583-.305.18-.111.389-.208.569-.319.194-.097.389-.194.583-.305.194-.097.389-.194.583-.305.18-.097.389-.194.569-.305.194-.111.389-.208.583-.305.194-.111.389-.208.583-.319.18-.097.389-.195.569-.305.194-.097.389-.195.583-.306.194-.111.389-.194.583-.305.18-.111.389-.208.569-.305.194-.111.389-.208.583-.319.194-.097.389-.194.569-.305.194-.097.402-.194.583-.305.194-.111.389-.208.583-.305.194-.111.389-.208.569-.319.194-.097.389-.195.583-.305.194-.097.389-.195.583-.306.194-.097.389-.194.569-.305.194-.111.402-.208.583-.305.194-.111.389-.208.583-.319.194-.097.389-.194.569-.305.194-.097.389-.194.583-.305.194-.111.389-.195.583-.305.194-.111.389-.208.583-.319.18-.097.375-.195.569-.305.194-.097.389-.195.583-.306.194-.097.389-.194.569-.305.194-.111.389-.208.583-.305.194-.111.389-.208.583-.319.194-.097.389-.194.569-.305.194-.097.389-.194.583-.305.194-.111.389-.195.583-.305.194-.111.389-.208.569-.319.194-.097.389-.195.583-.305.194-.097.389-.195.583-.306.194-.097.389-.194.569-.305.194-.111.389-.208.583-.305.194-.111.389-.208.583-.319.194-.097.389-.194.569-.305.194-.097.389-.194.583-.305.194-.097.389-.195.583-.305,3.54-1.916,6.691-4.595,9.231-7.927,5.483-7.218,7.232-16.352,4.803-25.084ZM143.049,290.014L71.448,40.243c-1.194-4.164,1.943-8.329,6.275-8.315l49.044.028c2.929,0,5.497,1.958,6.288,4.775l69.214,249.771c1.152,4.164-1.971,8.273-6.288,8.273l-46.656-.042c-2.915,0-5.469-1.915-6.275-4.72ZM561.815,392.696h-49.113c-2.929,0-5.497-1.958-6.288-4.775l-54.86-196.536c-.791-2.818-3.359-4.775-6.288-4.775h-39.618c-4.317,0-7.441,4.123-6.288,8.273l52.611,189.539c1.152,4.151-1.971,8.273-6.288,8.273h-50.112c-2.915,0-5.469-1.943-6.275-4.747l-55.679-196.591c-.805-2.804-3.359-4.747-6.288-4.747h-34.732c-4.331,0-7.454,4.151-6.275,8.315l53.833,189.456c1.194,4.164-1.943,8.315-6.275,8.315h-157.348c-2.929,0-5.497-1.958-6.288-4.775l-10.689-38.174c-1.166-4.178,1.985-8.301,6.316-8.288l87.884.389c4.345.014,7.496-4.137,6.288-8.315l-59.219-206.308c-1.194-4.164,1.943-8.315,6.274-8.315h50.848c2.86,0,5.386,1.86,6.233,4.609l2.207,7.191c.847,2.735,3.373,4.609,6.233,4.609h221.272c2.929,0,5.511,1.957,6.288,4.775l67.909,244.33c1.166,4.151-1.957,8.273-6.275,8.273Z"/><path class="cls-1" d="M561.815,392.696h-49.113c-2.929,0-5.497-1.958-6.288-4.775l-54.86-196.536c-.791-2.818-3.359-4.775-6.288-4.775h-39.618c-4.317,0-7.441,4.123-6.288,8.273l52.611,189.539c1.152,4.151-1.971,8.273-6.288,8.273h-50.112c-2.915,0-5.469-1.943-6.275-4.747l-55.679-196.591c-.805-2.804-3.359-4.747-6.288-4.747h-34.732c-4.331,0-7.454,4.151-6.275,8.315l53.833,189.456c1.194,4.164-1.943,8.315-6.275,8.315h-157.348c-2.929,0-5.497-1.958-6.288-4.775l-10.689-38.174c-1.166-4.178,1.985-8.301,6.316-8.288l87.884.389c4.345.014,7.496-4.137,6.288-8.315l-59.219-206.308c-1.194-4.164,1.943-8.315,6.274-8.315h50.848c2.86,0,5.386,1.86,6.233,4.609l2.207,7.191c.847,2.735,3.373,4.609,6.233,4.609h221.272c2.929,0,5.511,1.957,6.288,4.775l67.909,244.33c1.166,4.151-1.957,8.273-6.275,8.273Z"/><path class="cls-2" d="M195.98,294.775l-46.656-.042c-2.915,0-5.469-1.915-6.275-4.72L71.448,40.243c-1.194-4.164,1.943-8.329,6.275-8.315l49.044.028c2.929,0,5.497,1.958,6.288,4.775l69.214,249.771c1.152,4.164-1.971,8.273-6.288,8.273Z"/></g></svg>