<?xml version="1.0" encoding="UTF-8"?><svg id="Capa_2" xmlns="http://www.w3.org/2000/svg" viewBox="0 0 187.375 70.669"><g id="Capa_1-2"><path d="M64.046,40.958h4.741l-.007.023h37.109l1.07-3.251c.23-.698.882-1.17,1.617-1.17h1.847l3.357-10.194c.363-1.101-.458-2.235-1.617-2.235h-35.326c-1.466,0-2.769.939-3.231,2.331l-4.347,13.078h-5.212c-.392,0-.709.318-.709.709s.318.709.709.709ZM93.632,27.361c-.53,4.617.182,4.876,14.332,5.195-14.358.319-15.241.577-17.739,5.195.53-4.617-.183-4.876-14.332-5.195,14.358-.319,15.241-.577,17.739-5.195Z"/><path d="M169.331,24.13h-7.159c-1.467,0-2.768.939-3.231,2.331l-4.082,12.28c-.366,1.102.454,2.239,1.616,2.239h7.197c1.47,0,2.774-.944,3.234-2.34l4.042-12.275c.363-1.101-.457-2.235-1.617-2.235Z"/><path d="M185.767,21.473c-1.591-2.198-6.359-6.725-13.977-6.725h-.026c-1.283-7.089-8.89-12.192-22.837-14.018-21.976-2.875-55.559,2.927-87.251,14.117-.369-.063-.745-.099-1.125-.099h-5.545c-1.279,0-2.507.284-3.611.804-.972-.52-2.068-.804-3.197-.804h-5.512c-1.218,0-2.39.259-3.451.733-.936-.475-1.984-.733-3.06-.733h-5.514c-1.929,0-3.773.67-5.248,1.83-1.243-1.162-2.901-1.83-4.629-1.83h-5.512c-3.246,0-6.248,1.893-7.648,4.824-.16.33-.292.655-.401.987l-.005.008-.003.01L.338,41.464c-.678,2.061-.325,4.337.947,6.093.02.028.041.056.063.084.013.016.029.033.042.049.021.025.043.051.066.077.03.033.061.068.094.102.026.027.053.055.081.083.035.035.071.071.109.107.031.03.063.06.097.091.039.036.08.073.122.11.037.032.074.065.113.098.043.037.087.074.133.111.043.036.087.071.132.107.045.036.091.072.138.109.05.039.101.079.154.119.045.034.092.069.139.104.058.043.116.086.177.13.045.033.091.065.138.098.066.047.133.094.201.142.043.03.088.06.132.09.075.051.151.102.228.154.041.027.082.054.124.082.084.055.168.11.255.165.038.024.076.048.115.073.093.059.186.118.282.177.034.021.068.041.102.062.102.062.205.125.31.187.03.018.06.035.09.053.111.065.222.131.335.196.025.015.051.029.077.044.119.068.239.136.361.204.02.011.041.022.061.034.128.07.256.14.386.21.016.009.032.017.048.026.134.072.269.143.406.213.014.007.028.014.042.021.139.071.279.142.42.212.011.005.022.011.033.016.144.071.289.141.434.211.009.004.018.008.027.013.148.07.296.139.444.207.007.003.014.006.021.009.15.068.301.135.452.201.006.003.012.005.018.008.152.066.303.13.455.193.007.003.015.006.022.009.15.062.301.122.451.181.009.003.018.007.027.01.149.058.297.114.444.168.01.004.019.007.029.01.147.053.293.105.438.154.011.004.022.007.034.011.144.048.287.095.429.14.011.004.023.007.034.01.141.044.281.085.42.124.017.005.033.009.049.013.134.037.267.073.398.105.019.005.038.009.058.013.128.031.255.061.38.087.023.005.044.008.067.013.121.025.241.049.359.069.03.005.059.009.088.013.109.018.218.035.325.049.042.005.083.008.124.013.092.01.185.021.275.028.037.003.073.003.11.005-.087,8.309,7.582,14.352,23.03,16.375,23.401,3.063,59.964-3.715,93.39-16.36h.01c1.744,0,3.363-.663,4.584-1.783.384-.153.767-.306,1.149-.461,1.257,1.397,3.069,2.241,5.037,2.241h6.709c1.127,0,2.223-.284,3.192-.804,1.114.525,2.342.807,3.601.807h18.55c3.669,0,6.907-2.342,8.054-5.829l6.144-18.654c.848-2.576.403-5.425-1.185-7.623ZM137.076,8.015c9.116,1.194,15.793,3.54,20.035,6.733h-3.868c-1.865,0-3.619.604-5.042,1.66-1.444-1.063-3.208-1.66-5.037-1.66h-18.55c-1.845,0-3.583.594-4.999,1.627-1.434-1.04-3.18-1.627-4.991-1.627h-44.543c24.02-6.358,48.583-9.142,66.996-6.733ZM67.905,19.823h46.717c2.319,0,3.96,2.267,3.235,4.47l-6.143,18.654c-.46,1.396-1.764,2.34-3.234,2.34h-49.071c-1.159,0-1.98-1.134-1.617-2.235l6.878-20.889c.46-1.396,1.764-2.34,3.234-2.34ZM39.452,22.163c.46-1.396,1.764-2.34,3.234-2.34h5.512c1.159,0,1.98,1.134,1.617,2.235l-1.654,5.022c-.46,1.397-1.764,2.34-3.234,2.34h-3.616c-.371,0-.709.267-.746.636-.043.425.29.783.706.783h13.886c.413,0,.743-.353.706-.773-.032-.375-.38-.646-.757-.646h-3.372c-1.159,0-1.98-1.134-1.617-2.235l1.654-5.022c.46-1.396,1.764-2.34,3.234-2.34h5.543c1.16,0,1.98,1.134,1.617,2.236l-6.892,20.89c-.461,1.395-1.764,2.338-3.234,2.338h-5.479c-1.159,0-1.98-1.134-1.617-2.235l1.868-5.672c.363-1.102-.458-2.235-1.617-2.235h-5.311c-2.319,0-3.959-2.267-3.234-4.47l2.802-8.513ZM20.549,43.052l1.751-5.318c.23-.698.882-1.17,1.617-1.17h4.956c.416,0,.748-.358.705-.782-.037-.369-.375-.636-.746-.636h-10.742l-2.954,8.972c-.23.698-.882,1.17-1.617,1.17h-6.744c-1.16,0-1.98-1.134-1.617-2.235l6.878-20.889c.047-.14.103-.273.165-.403.56-1.171,1.746-1.937,3.07-1.937h5.512c1.159,0,1.98,1.133,1.617,2.235l-2.891,8.78h5.061l2.857-8.675c.046-.14.103-.273.165-.403.559-1.171,1.746-1.937,3.069-1.937h5.513c1.159,0,1.98,1.133,1.617,2.235l-7.264,22.059c-.23.698-.882,1.17-1.617,1.17h-6.744c-1.16,0-1.98-1.134-1.617-2.235ZM48.384,62.654c-12.374-1.62-20.256-5.363-23.65-10.468.072-.055.147-.107.217-.165,1.203.992,2.73,1.556,4.322,1.556h6.742c2.918,0,5.494-1.852,6.423-4.616,1.17.896,5.238,4.352,11.232,4.618h5.479c1.396,0,2.728-.34,3.908-.952,1.033.612,2.228.952,3.459.952h49.073c1.454,0,2.84-.368,4.053-1.028,1.061.66,2.302,1.028,3.583,1.028h.444c-26.553,7.99-54.743,11.763-75.283,9.075ZM140.361,35.145h-1.042l2.603,7.907c.362,1.102-.458,2.235-1.618,2.235h-6.709c-.735,0-1.387-.472-1.617-1.17l-2.951-8.964s-.006-.008-.011-.008h-1.608s-.009.003-.011.008l-2.952,8.964c-.23.698-.882,1.17-1.617,1.17h-6.71c-1.159,0-1.98-1.134-1.617-2.235l3.251-9.873c.46-1.397,1.764-2.34,3.235-2.34h19.136c.412,0,.743-.352.706-.773-.032-.375-.38-.646-.757-.646h-18.73c-1.159,0-1.98-1.134-1.617-2.235l1.653-5.022c.46-1.396,1.764-2.34,3.234-2.34h18.55c2.318,0,3.959,2.267,3.234,4.47l-2.803,8.512c-.46,1.397-1.764,2.34-3.234,2.34ZM175.025,24.293l-6.142,18.654c-.46,1.396-1.764,2.34-3.234,2.34h-18.55c-2.319,0-3.959-2.267-3.234-4.47l6.142-18.654c.46-1.396,1.764-2.34,3.235-2.34h18.55c2.319,0,3.959,2.267,3.234,4.47Z"/></g></svg>