<?xml version="1.0" encoding="UTF-8"?><svg id="Capa_2" xmlns="http://www.w3.org/2000/svg" viewBox="0 0 205.005 97.726"><g id="Capa_1-2"><path d="M91.857,35.085c-2.081,1.099-4.672,1.649-7.773,1.649-4.004,0-7.211-1.289-9.619-3.867-2.408-2.578-3.612-5.96-3.612-10.148,0-4.501,1.354-8.14,4.063-10.914,2.708-2.774,6.144-4.161,10.305-4.161,2.67,0,4.881.386,6.635,1.158v3.514c-2.015-1.125-4.24-1.688-6.674-1.688-3.232,0-5.853,1.08-7.862,3.239s-3.013,5.045-3.013,8.657c0,3.429.939,6.161,2.817,8.195,1.878,2.035,4.341,3.052,7.391,3.052,2.827,0,5.273-.628,7.341-1.884v3.2Z"/><path d="M102.543,36.734c-2.971,0-5.343-.939-7.116-2.817-1.773-1.878-2.66-4.368-2.66-7.469,0-3.376.923-6.013,2.768-7.911,1.845-1.897,4.338-2.846,7.479-2.846,2.997,0,5.336.923,7.018,2.768,1.682,1.845,2.522,4.404,2.522,7.675,0,3.207-.906,5.774-2.719,7.705-1.812,1.931-4.243,2.896-7.292,2.896ZM102.778,18.4c-2.068,0-3.704.704-4.907,2.11-1.204,1.407-1.806,3.347-1.806,5.82,0,2.382.608,4.26,1.826,5.634,1.217,1.374,2.846,2.061,4.888,2.061,2.081,0,3.681-.674,4.799-2.022,1.119-1.348,1.678-3.265,1.678-5.751,0-2.512-.559-4.449-1.678-5.81-1.119-1.361-2.719-2.042-4.799-2.042Z"/><path d="M124.006,36.066c-.759.418-1.76.628-3.003.628-3.521,0-5.28-1.963-5.28-5.889v-11.896h-3.455v-2.748h3.455v-4.907l3.219-1.041v5.948h5.064v2.748h-5.064v11.326c0,1.348.229,2.31.687,2.886s1.217.864,2.277.864c.812,0,1.512-.223,2.101-.667v2.748Z"/><path d="M134.614,36.066c-.759.418-1.76.628-3.003.628-3.521,0-5.28-1.963-5.28-5.889v-11.896h-3.455v-2.748h3.455v-4.907l3.219-1.041v5.948h5.064v2.748h-5.064v11.326c0,1.348.229,2.31.687,2.886s1.217.864,2.277.864c.812,0,1.512-.223,2.101-.667v2.748Z"/><path d="M151.738,27.017h-14.192c.052,2.238.654,3.965,1.806,5.182,1.151,1.217,2.735,1.826,4.75,1.826,2.264,0,4.344-.746,6.242-2.238v3.023c-1.767,1.283-4.103,1.924-7.008,1.924-2.84,0-5.071-.913-6.694-2.738-1.623-1.826-2.434-4.394-2.434-7.705,0-3.127.887-5.676,2.66-7.646,1.773-1.969,3.975-2.954,6.605-2.954s4.665.851,6.105,2.552c1.439,1.702,2.159,4.063,2.159,7.086v1.688ZM148.441,24.288c-.013-1.858-.461-3.304-1.345-4.338-.883-1.034-2.11-1.551-3.68-1.551-1.519,0-2.807.543-3.867,1.629-1.06,1.086-1.714,2.506-1.963,4.259h10.855Z"/><path d="M162.916,36.066c-.759.418-1.76.628-3.003.628-3.521,0-5.28-1.963-5.28-5.889v-11.896h-3.455v-2.748h3.455v-4.907l3.219-1.041v5.948h5.064v2.748h-5.064v11.326c0,1.348.229,2.31.687,2.886s1.217.864,2.277.864c.812,0,1.512-.223,2.101-.667v2.748Z"/><path d="M91.857,68.812c-2.081,1.099-4.672,1.649-7.773,1.649-4.004,0-7.211-1.289-9.619-3.867-2.408-2.578-3.612-5.96-3.612-10.148,0-4.501,1.354-8.14,4.063-10.914,2.708-2.774,6.144-4.161,10.305-4.161,2.67,0,4.881.386,6.635,1.158v3.514c-2.015-1.125-4.24-1.688-6.674-1.688-3.232,0-5.853,1.08-7.862,3.239s-3.013,5.045-3.013,8.657c0,3.429.939,6.161,2.817,8.195,1.878,2.035,4.341,3.052,7.391,3.052,2.827,0,5.273-.628,7.341-1.884v3.2Z"/><path d="M110.297,60.744h-14.192c.052,2.238.654,3.965,1.806,5.182,1.151,1.217,2.735,1.826,4.75,1.826,2.264,0,4.344-.746,6.242-2.238v3.023c-1.767,1.283-4.103,1.924-7.008,1.924-2.84,0-5.071-.913-6.694-2.738-1.623-1.826-2.434-4.394-2.434-7.705,0-3.127.887-5.676,2.66-7.646,1.773-1.969,3.975-2.954,6.605-2.954s4.665.851,6.105,2.552c1.439,1.702,2.159,4.063,2.159,7.086v1.688ZM106.999,58.015c-.013-1.858-.461-3.304-1.345-4.338-.883-1.034-2.11-1.551-3.68-1.551-1.519,0-2.807.543-3.867,1.629-1.06,1.086-1.714,2.506-1.963,4.259h10.855Z"/><path d="M115.369,69.989h-3.219v-29.758h3.219v29.758Z"/><path d="M135.124,69.989h-3.219v-3.18h-.079c-1.334,2.434-3.402,3.651-6.203,3.651-4.79,0-7.185-2.853-7.185-8.559v-12.013h3.2v11.503c0,4.24,1.623,6.36,4.868,6.36,1.57,0,2.862-.579,3.876-1.737s1.521-2.672,1.521-4.544v-11.582h3.219v20.101Z"/><path d="M141.825,69.989h-3.219v-29.758h3.219v29.758Z"/><path d="M159.716,69.989h-3.219v-3.141h-.079c-1.4,2.408-3.461,3.612-6.183,3.612-2.002,0-3.57-.53-4.701-1.59-1.132-1.06-1.698-2.467-1.698-4.221,0-3.755,2.211-5.941,6.635-6.556l6.026-.844c0-3.416-1.381-5.123-4.142-5.123-2.421,0-4.606.824-6.556,2.473v-3.298c1.976-1.256,4.253-1.884,6.831-1.884,4.724,0,7.086,2.5,7.086,7.499v13.073ZM156.497,59.821l-4.849.667c-1.492.209-2.617.579-3.376,1.109-.759.53-1.139,1.469-1.139,2.817,0,.981.35,1.783,1.05,2.404.7.622,1.632.933,2.797.933,1.597,0,2.915-.56,3.956-1.678,1.041-1.119,1.561-2.535,1.561-4.25v-2.002Z"/><path d="M173.249,53.147c-.563-.432-1.374-.647-2.434-.647-1.374,0-2.522.647-3.445,1.943-.923,1.295-1.384,3.062-1.384,5.3v10.247h-3.219v-20.101h3.219v4.142h.079c.458-1.413,1.158-2.516,2.101-3.308.942-.792,1.995-1.188,3.16-1.188.837,0,1.479.092,1.924.275v3.337Z"/><path d="M189.354,60.744h-14.193c.052,2.238.654,3.965,1.806,5.182,1.151,1.217,2.735,1.826,4.75,1.826,2.264,0,4.344-.746,6.242-2.238v3.023c-1.768,1.283-4.103,1.924-7.008,1.924-2.84,0-5.071-.913-6.694-2.738-1.623-1.826-2.434-4.394-2.434-7.705,0-3.127.887-5.676,2.66-7.646,1.773-1.969,3.975-2.954,6.605-2.954s4.665.851,6.105,2.552c1.439,1.702,2.16,4.063,2.16,7.086v1.688ZM186.055,58.015c-.014-1.858-.461-3.304-1.345-4.338-.883-1.034-2.11-1.551-3.68-1.551-1.519,0-2.807.543-3.867,1.629-1.06,1.086-1.714,2.506-1.963,4.259h10.855Z"/><path d="M189.988,69.263v-3.455c1.754,1.295,3.684,1.943,5.791,1.943,2.827,0,4.24-.942,4.24-2.827,0-.537-.121-.991-.363-1.364s-.569-.703-.981-.991c-.412-.288-.896-.546-1.452-.775-.557-.229-1.155-.468-1.797-.716-.89-.354-1.672-.71-2.346-1.07s-1.236-.766-1.688-1.217c-.452-.451-.792-.965-1.021-1.541-.229-.576-.343-1.25-.343-2.021,0-.942.216-1.777.647-2.503s1.008-1.335,1.728-1.826,1.541-.86,2.463-1.109c.923-.249,1.875-.373,2.856-.373,1.74,0,3.298.301,4.672.903v3.259c-1.479-.968-3.18-1.453-5.104-1.453-.603,0-1.146.069-1.629.206-.484.137-.9.331-1.247.579s-.615.546-.805.893-.284.729-.284,1.148c0,.523.095.962.284,1.315.189.354.468.667.834.942s.812.523,1.335.746,1.119.464,1.786.726c.89.34,1.688.69,2.396,1.05.706.36,1.308.766,1.806,1.217.497.452.88.972,1.148,1.561.268.589.402,1.289.402,2.101,0,.995-.22,1.858-.658,2.591-.438.733-1.023,1.342-1.757,1.826-.732.484-1.577.844-2.532,1.08-.955.236-1.956.354-3.003.354-2.067,0-3.86-.399-5.379-1.197Z"/><path d="M14.324,15.991c-.013,2.674-.004,5.349-.004,8.023v.307c-.182.065-.364.1-.511.19-.221.138-.273.377-.273.628v5.379c0,.454.203.653.77.762v2.726c-.705.203-.77.294-.77,1.047v2.211c0,.619.156.805.77.913v.757c-.653.143-.77.294-.77.961v2.333c0,.571.182.775.775.853v12.875h.009c0,2.272-.013,4.548.004,6.82.004.879.221,1.701.602,2.423.679,1.298,1.887,2.276,3.345,2.648t.009.004c.42.108.861.164,1.316.164,6.5.009,13,.009,19.5,0,.71,0,1.385-.147,2.004-.411,1.091-.459,1.999-1.285,2.575-2.324.415-.757.653-1.627.653-2.549.004-4.431.004-8.859.004-13.29h13.009v1.406c0,8.655-2.398,15.471-7.197,20.448-4.795,4.977-11.667,7.465-20.608,7.465-9.019,0-16.194-2.614-21.53-7.846C2.666,65.689,0,58.064,0,48.037v-17.31C0,20.699,2.666,13.074,8.006,7.842,13.342,2.614,20.517,0,29.536,0c8.941,0,15.813,2.488,20.608,7.465,4.799,4.977,7.197,11.793,7.197,20.448v.541h-13.009c0-4.142,0-8.283-.004-12.429-.004-.93-.242-1.8-.658-2.558-.567-1.026-1.467-1.844-2.558-2.307,0,0-.004,0-.009-.004-.627-.264-1.316-.411-2.043-.411-6.5-.009-13-.009-19.5,0-.437,0-.866.056-1.272.156h-.004c-1.45.372-2.661,1.346-3.345,2.644-.389.731-.61,1.562-.615,2.445Z"/><path d="M35.283,14.047v.697c0,.169-.134.307-.303.307h-12.091c-.169,0-.307-.138-.307-.307v-.697c0-.169.138-.307.307-.307h12.091c.169,0,.303.138.303.307Z"/><path d="M28.934,62.166c-.805,0-1.454.649-1.454,1.45,0,.805.649,1.454,1.454,1.454.801,0,1.454-.649,1.454-1.454,0-.801-.653-1.45-1.454-1.45ZM34.98,13.74h-12.091c-.169,0-.307.138-.307.307v.697c0,.169.138.307.307.307h12.091c.169,0,.303-.138.303-.307v-.697c0-.169-.134-.307-.303-.307Z"/><path d="M30.389,63.616c0,.805-.653,1.454-1.454,1.454-.805,0-1.454-.649-1.454-1.454,0-.801.649-1.45,1.454-1.45.801,0,1.454.649,1.454,1.45Z"/><path d="M35.283,14.047v.697c0,.169-.134.307-.303.307h-12.091c-.169,0-.307-.138-.307-.307v-.697c0-.169.138-.307.307-.307h12.091c.169,0,.303.138.303.307Z"/><path d="M30.389,63.616c0,.805-.653,1.454-1.454,1.454-.805,0-1.454-.649-1.454-1.454,0-.801.649-1.45,1.454-1.45.801,0,1.454.649,1.454,1.45Z"/><path d="M35.283,14.047v.697c0,.169-.134.307-.303.307h-12.091c-.169,0-.307-.138-.307-.307v-.697c0-.169.138-.307.307-.307h12.091c.169,0,.303.138.303.307Z"/></g></svg>