<?xml version="1.0" encoding="UTF-8"?><svg id="Capa_2" xmlns="http://www.w3.org/2000/svg" viewBox="0 0 96.13 69.913"><g id="Capa_1-2"><rect x="78.652" y="52.435" width="17.478" height="17.478"/><polygon points="34.957 17.478 52.435 0 34.957 0 17.478 0 0 17.478 0 34.957 0 52.435 0 69.913 17.478 69.913 17.478 52.435 34.957 34.957 17.478 34.957 17.478 17.478 34.957 17.478"/><polygon points="78.652 0 78.652 34.957 96.13 52.435 96.13 34.957 96.13 0 78.652 0"/><polygon points="61.174 34.957 61.174 17.478 43.696 34.957 59.29 52.435 61.174 52.435 78.652 52.435 78.652 34.957 61.174 34.957"/></g></svg>