<?xml version="1.0" encoding="UTF-8"?><svg id="Capa_2" xmlns="http://www.w3.org/2000/svg" viewBox="0 0 321.879 194.472"><g id="Capa_1-2"><path d="M68.9,72.228l8.164,57.715c.363,2.253.69,5.142.981,8.665.29,3.526.508,6.704.654,9.538.145,3.27.29,6.54.436,9.81.145,3.27.218,6.54.218,9.81,0,1.599.036,3.161.109,4.687v4.578h2.18l-.218-26.378v-3.161c0-.581.036-1.235.109-1.962v-2.071c0-1.889.054-3.488.163-4.796s.235-2.87.381-4.687c0-.726.036-1.434.109-2.126.072-.69.145-1.362.218-2.016l6.002-52.045c3.042,2.211,6.976,4.198,12.453,4.198,4.632,0,8.765-.571,12.459-1.605l-15.763,112.999h-31.174l-4.578-38.586c-.146-1.598-.327-3.505-.545-5.723-.218-2.216-.436-4.469-.654-6.758-.218-2.289-.365-4.342-.436-6.159-.291-3.342-.509-6.611-.654-9.81-.146-3.197-.255-6.431-.327-9.701-.073-1.453-.109-2.979-.109-4.578-.073-1.453-.109-2.906-.109-4.36h-2.18c0,2.616-.019,5.542-.054,8.774-.037,3.235-.164,6.523-.381,9.865-.218,3.27-.436,6.523-.654,9.756-.218,3.235-.473,6.486-.763,9.756-.146,1.526-.291,3.052-.436,4.578-.218,1.526-.4,2.981-.545,4.36l-4.687,38.586h-31.174L0,63.67h17.41c1.049.361,2.144.564,3.266.564,1.134,0,2.249-.19,3.323-.564h.003c.438.073,1.093.249,1.409.334.084.022.166.043.249.065l7.584,65.765c.071.872.181,2.18.327,3.924.145,1.744.254,3.199.327,4.36,0,.8.017,1.618.054,2.452.036.836.054,1.654.054,2.452,0,.872.036,1.744.109,2.616v8.611l-.109,22.781h2.18c0-1.453.036-2.979.109-4.578v-4.687c0-3.27.071-6.54.218-9.81.145-3.27.29-6.54.436-9.81.145-2.834.363-6.012.654-9.538.29-3.524.617-6.412.981-8.665l9.374-66.273h19.729l.408,2.882.803,5.676Z"/><path d="M148.896,136.374h26.16v-23.98h-26.16v-24.743h28.34v-23.98h-42.286c-2.963,4.768-6.755,9.025-11.67,12.233v117.479h54.501v-23.98h-28.885v-33.027Z"/><path d="M252.773,150.871c-.583-2.688-1.49-5.304-2.725-7.848-1.237-2.543-2.908-5.194-5.014-7.957-2.108-2.616-4.815-5.631-8.121-9.047-3.307-3.415-6.921-6.903-10.845-10.464-1.308-1.161-2.471-2.289-3.488-3.379-1.09-1.016-2.071-1.998-2.943-2.943-1.744-1.671-3.198-3.252-4.36-4.742-1.164-1.488-2.035-2.779-2.616-3.869-.727-1.235-1.182-2.398-1.363-3.488-.182-1.09-.272-2.107-.272-3.052,0-3.123.616-5.521,1.853-7.194,1.235-1.671,2.943-2.507,5.123-2.507,4.723,0,7.085,3.526,7.085,10.573v7.63h23.98v-9.592c0-3.996-.436-7.63-1.308-10.9-1.09-3.996-2.616-7.157-4.578-9.483-1.962-2.325-3.815-4.033-5.559-5.123-5.232-3.27-11.919-4.905-20.056-4.905-4.289,0-8.103.436-11.445,1.308-6.758,1.744-11.919,5.16-15.478,10.246-1.817,2.616-3.144,5.651-3.978,9.102-.836,3.452-1.254,7.177-1.254,11.173,0,1.526.055,3.016.164,4.469.109,1.454.308,2.834.6,4.142.581,2.689,1.471,5.324,2.67,7.902,1.199,2.581,2.851,5.251,4.96,8.011,2.107,2.834,4.668,5.76,7.685,8.775,3.015,3.016,6.557,6.341,10.627,9.973,1.308,1.164,2.524,2.253,3.652,3.27,1.126,1.019,2.161,1.962,3.106,2.834,1.671,1.673,3.143,3.198,4.415,4.578,1.271,1.381,2.27,2.725,2.998,4.033.654,1.308,1.09,2.526,1.308,3.652.218,1.127.327,2.452.327,3.978,0,.801-.038,1.581-.109,2.344-.073.763-.146,1.472-.218,2.126-.291,1.455-.727,2.671-1.308,3.652-.582.981-1.199,1.798-1.853,2.452-.727.727-1.635,1.254-2.725,1.581-1.09.327-2.217.49-3.379.49-3.343,0-5.815-1.161-7.412-3.488-1.744-2.325-2.616-5.595-2.616-9.81v-11.554h-23.98v11.445c0,4.725.472,8.902,1.417,12.535,1.815,7.485,5.486,13.118,11.009,16.895,5.595,3.852,12.862,5.777,21.801,5.777,4.431,0,8.573-.51,12.426-1.526,3.488-.872,6.704-2.289,9.647-4.251s5.322-4.323,7.14-7.085c1.962-2.906,3.415-6.194,4.36-9.865.944-3.669,1.417-7.685,1.417-12.044,0-1.598-.055-3.123-.164-4.578-.109-1.453-.31-2.869-.599-4.251Z"/><polygon points="255.933 63.67 255.933 87.65 276.098 87.65 276.098 193.382 301.714 193.382 301.714 87.65 321.879 87.65 321.879 63.67 255.933 63.67"/><polygon points="60.807 31.776 58.047 27.823 54.094 30.061 56.928 33.417 60.807 31.776"/><path d="M15.828,40.802c.97-.373,3.282-1.641,3.73-1.641l2.014-.373h.075c.224,0,.448-.149.672-.149.074,0,.149.075.149.224,0,2.014-9.399,3.58-9.399,11.935,0,2.238,3.73,7.832,7.609,7.832.671,0,1.268-.149,1.79-.373.373-.149.821-.224,1.268-.224,1.566,0,3.58.746,3.953.746l4.774-.373c5.371,0,17.828-6.713,21.632-8.951,1.193-1.044,6.489-5.221,8.429-5.221,1.865,0,1.119,2.089,2.462,2.089.522,0,2.387-.597,2.834-.597.522,0,3.73,1.194,4.326,1.194.522,0,.373-.224.895-.224.746,0,3.506.447,3.506,2.462,0,2.984-4.699,4.252-4.699,6.862,0,.597.373.895,1.119.895,2.387,0,4.103-4.774,8.877-7.981.38-.309,1.607-1.442,3.141-2.922,3.285-3.169,7.98-7.931,8.794-9.609.075-.224.224-.298.224-.522,0-.149-.074-.298-.298-.447h-1.119c-4.103,3.357-5.744,5.52-7.534,5.52l-.151-.03-11.113-2.208c-.522,0-.597.224-1.119.224,0,0-4.55-.895-4.475-1.865,0-.522,8.951-8.504,12.308-14.396,1.566-2.76,4.252-5.967,6.863-8.28,1.193-1.193,13.949-3.058,13.949-9.026,0-.895-.746-5.371-2.834-5.371-4.998,0-6.415,1.193-10.816,5.594-1.566,1.79-2.462,6.564-5.147,8.727-3.581.895-18.946,5.743-22.229,6.937-3.357,1.79-25.287,9.548-27.003,10.443-.373,0-5.818,2.387-6.34,2.387l-6.639,2.834c-.671.448-9.697,5.147-10.07,5.52v.97h.075c.597,0,5.371-2.611,5.52-2.611ZM94.672,3.133c.522,0,1.044.224,1.715.597-1.044,5.221-4.028,7.012-7.235,8.578l-1.865-.224c.224-1.193,4.998-8.951,7.385-8.951ZM54.094,45.8c-1.79.97-3.953,3.058-6.266,4.326-.97.671-13.949,6.042-16.858,6.042-.522,0-1.417-.671-2.014-.671l-3.282,1.044-2.685-.224c-4.326,0-7.236-5.968-7.236-8.056,0-.373,1.268-2.909,2.462-3.73,3.431-2.387,12.83-3.73,18.201-3.73,1.268,0,16.261.671,17.753,1.268l3.282.746-3.356,2.984ZM53.422,25.809c1.566,0,6.639-2.834,7.981-3.058,4.103-1.566,13.874-4.923,18.201-6.117.373,0,1.268.075,1.268.895,0,2.909-4.252,1.044-5.669,2.312.149.075.224.149.224.224l-3.953,2.238c0,.149.075.224.298.298,2.163,1.119,4.774,1.492,4.774,1.716h-.224l-1.417,1.417c-1.193,0-6.266.671-7.31,1.716l-2.014,1.417c.821.597,4.55,1.865,4.55,2.76,0,1.119-4.102,5.669-6.564,5.669-.448,0-6.415-1.417-9.622-2.238-1.119,0-2.984-.447-3.506-.447-9.026,0-11.636.447-12.905.447l-1.715-.447c-.597,0-1.044.895-1.567.97-2.163.597-5.893,1.716-7.012,1.716-.522,0-.597-.298-.821-.671,0,.074,25.063-10.891,27.002-10.816Z"/><path d="M100.339,18.201c0,.97,1.865,5.221,3.879,5.221,2.462,0,5.072-2.611,5.072-4.923,0-2.163-4.401-3.356-5.371-3.356-1.268,0-3.581,1.492-3.581,3.058Z"/><path d="M128.133,63.67c5.133-6.818,8.495-16.154,10.77-27.493,1.498-.685,2.26-1.026,3.129-1.531.646-.375,1.352-.839,2.465-1.602,1.417-.97,2.238-2.163,2.238-2.685,0-.224-.075-.298-.298-.298l-.034.008-4.665,1.111c-2.984,0-3.655-.597-3.655-1.268,0-.522.373-.97.373-1.343,0-.224-.224-.373-.671-.373h-.373c-4.55.373-2.462,2.611-4.923,3.804-.075,0-.149,0-.224.075-.895.373-2.834,1.194-3.655,1.194-.671,0-1.044-.821-1.044-2.462,0-.522,0-.97.075-1.566,0-.149-.373-.224-1.044-.224-.821,0-1.865.149-2.536.821-2.909,2.909-2.462,3.506-4.625,4.326-.682.278-1.195.799-1.801,1.492-1.184,1.354-2.73,3.374-6.628,5.594-.373.224-2.536,2.387-2.536,2.834,0,.038,0,.056.011.065-.745.416-1.503.861-2.248,1.352-.075.075-.149.075-.298.075-.821,0-2.387-1.044-2.685-1.343v-2.462c0-2.014,1.044-4.849,2.014-7.31.522-1.417,1.193-2.909,1.939-4.326-1.194-.597-.97-.895-1.79-.895s-1.268-.075-1.492-.075h-.149c-.507,0,.884.564-4.364,5.173-.156.137-.316.277-.484.421,0,.447-5.445,4.55-8.429,7.31-.224.298-.447,1.119-.447,1.417v.075q0,.075.075.075c.522,0,2.984-2.462,5.52-3.73.597-.298,1.119-.447,1.566-.447.466,0,.74.251.797.727.007.057.024.104.024.169,0,.224,0,.373-.075.522-1.193,5.296-1.268,5.371-1.268,6.937,0,.821.298,3.804,2.462,3.804.785,0,3.193-1.321,5.925-3.018,3.496-2.171,7.524-4.958,9.366-6.381.821-.597,1.044-.97,1.044-1.194,0-.187-.169-.317-.526-.356l.973-.54c.671-.373,1.119-.597,1.417-.597.522,0,.746.373.746.895,0,.821-1.716,6.117-1.716,6.937,0,.038.017.172.049.359.16.915.74,3.221,2.039,3.221.821,0,9.921-3.879,10.517-3.879.821,0,.672,1.865.97,2.163l-1.268,3.356c0,.821-.895,2.387-1.268,3.581-.731,2.582-2.045,5.162-3.738,7.502-.13.179-.263.356-.397.533-2.396,3.149-5.474,5.81-8.731,7.362-1.951.93-3.965,1.462-5.931,1.462-7.288,0-13.703-5.402-18.583-9.354-2.812-2.277-5.115-4.073-6.779-4.073-4.774,0-4.028.597-6.713,2.462-.97.522-1.566,1.417-1.939,2.312-.224.522-.373,1.119-.522,1.641.671-.075,1.417-.149,2.089-.149,1.417,0,2.536.149,3.058.149,4.222,0,6.928,2.601,9.937,5.198,2.998,2.587,6.297,5.17,11.695,5.17,5.025,0,9.437-.743,13.319-2.164,3.433-1.257,6.446-3.053,9.101-5.333,1.774-1.523,3.386-3.267,4.853-5.216ZM128.161,45.8h-.149c-.522,0-.895-.373-1.492-.895-.224,0-1.193.224-2.014.224-.373,0-.671-.075-.746-.224,0-3.506.373-9.1,5.371-9.1h2.611l.075.149c.373.597.671,1.119.671,1.939,0,1.566-2.76,7.31-4.326,7.907Z"/><path d="M144.198,44.979c0,.522-.149,1.641-.149,2.76,0,1.715.373,3.506,2.088,3.506,5.371,0,11.86-12.382,13.874-12.382.821,0,.448.149.821.522v.447c0,2.685.075,11.264,2.163,11.264l2.835-2.089,4.103-3.133,1.492-.97,3.282-2.312c.671-.298.969-.746.969-1.268,0-.298-.149-.522-.373-.597-2.685,1.417-3.655,1.79-5.818,3.581-.298.224-.597.298-.895.298-.821,0-1.566-.447-1.79-1.715-.224-2.611-.298-4.476-.298-7.385v-2.089c0-.224.074-.298.149-.298h.224c.522,0,1.343-.224,3.655-2.387v-1.119c-.671-.224-.97-.671-1.641-.671l-3.581,1.939c-2.984,0-4.102-2.312-6.117-2.312s-2.685,1.865-4.475,2.834c-1.069.528-2.077,1.112-3.021,1.742-2.381,1.587-4.326,3.48-5.639,5.601-1.184,1.913-1.858,4.009-1.858,6.233ZM156.655,35.133c.821,0,2.014.746,2.014,1.566,0,1.641-6.713,8.205-7.534,8.877h-1.119v-2.238c0-2.163,1.343-8.205,6.639-8.205Z"/><path d="M243.172,39.758c0,2.909-3.357,6.862-6.863,6.862-2.76,0-5.296-5.296-5.296-6.713,0-.895.149-3.804.149-5.371-.448,0-.149-1.939-1.119-1.939-.821,0-3.879,2.312-5.296,3.282-1.79,1.417-1.119,1.194-3.431,2.163-.821.298-1.566.373-4.028,2.462-.672.522-1.194,1.343-1.567,1.939-.224.373-.373.746-.522,1.119l5.52-2.685c.671-.224,1.194-.373,1.567-.373.895,0,.746.671,1.268.671.821,0,1.492,10.443,7.31,10.443,2.526,0,8.755-3.225,13.17-6.975,2.755-2.339,4.806-4.882,4.806-6.974,0-1.161-.584-2.438-1.293-3.59-1.068-1.735-2.421-3.182-2.511-3.496-1.193-6.191-18.946-15.963-23.422-22.751-2.909-2.163-7.758-6.639-8.504-6.639-1.79,0-5.222,4.923-5.222,5.893,0,2.611,35.283,22.751,35.283,32.672Z"/><path d="M250.154,46.578c.927,2.662,3.026,4.741,7.338,4.741,3.129,0,7.058-1.861,10.865-4.108,2.002-1.181,3.97-2.467,5.769-3.65.812-.513,1.468-1.292,1.888-2.021l2.811-1.932c0-.068-.051-.081,2.783-1.923.288-.187.595-.387.946-.613.373-.224.671-.298.895-.298.596,0,1.119.224,1.119.746v.672c0,5.445.075,6.564-7.459,11.86l-.448,2.462h.149c1.716,0,5.222-2.313,8.429-4.326,1.193-.821,9.771-3.804,12.904-6.564.97-.821,1.417-1.939,1.417-2.462,0-.224-.075-.298-.224-.298-.074,0-.149,0-.224.075l-.448.298-.224.149-.522.373c-1.865,1.417-4.103,2.909-5.669,2.909l-.448-.075c-.596-.075-.821-.671-1.044-1.268-.074-.373-.149-.746-.149-1.119,0-.746,1.045-4.103,1.417-5.967.224-.821.149-1.716.149-2.611v-1.79c0-1.566.074-2.984.671-3.58.522.522,1.119.746,1.79.746,2.387,0,17.007-17.753,17.007-20.737,0-2.611-3.804-3.506-5.818-3.506-1.716,0-10.891,6.34-14.471,8.877-2.014,1.417-2.835,4.252-3.655,5.818-.596,1.119-.522,2.685-.821,3.804-.969,3.953-1.044,5.744-1.417,8.877-.449,1.305-2.547,3.568-5.04,5.802-2.067,1.853-4.405,3.688-6.298,4.939-.522.332-1.012.996-1.301,1.589-1.405,1.126-3.059,2.279-5.372,3.295-1.423.625-3.088,1.199-5.113,1.68-.224.075-.447.075-.821.075-3.058,0-5.221-3.953-5.221-4.774l-.597-2.611c0-.447.224-.671.746-.671,1.193,0,.895,1.492,4.251,1.492,1.79,0,6.415-1.566,7.832-2.76,1.417-1.119,2.834-3.506,4.252-4.476.074-.149.074-.373.074-.597,0-1.865-2.387-3.357-4.55-3.357h-.149c-4.028.224-9.473,1.268-12.308,4.923-.468.624-.992,1.128-1.52,1.552-1.492,1.199-3.018,1.74-3.404,2.401-.671,1.268-1.193,1.716-1.492,2.238l.074,1.417c0,1.451.175,2.941.643,4.285ZM293.072,23.198c0-.97.373-4.028.597-5.52.224-1.716,3.356-9.324,8.13-9.324l2.536.149c.298.298.447.075.447.895,0,4.028-9.026,14.62-10.89,15.217l-.821-1.194v-.224ZM268.159,31.329c.596,0,1.193.522,1.566,1.044.224.298.373.671.597,1.044-.97,2.387-4.7,3.282-5.594,3.282h-.149c-.597,0-2.685,0-2.685-1.492,0-2.163,3.58-3.655,6.266-3.879Z"/></g></svg>