<?xml version="1.0" encoding="UTF-8"?><svg id="Capa_2" xmlns="http://www.w3.org/2000/svg" viewBox="0 0 100.03 75.118"><g id="Capa_1-2"><path d="M99.846,63.503l-11.695-42.074c-.593-2.135-2.553-3.624-4.767-3.624h-36.162c-.81-1.716-2.527-2.826-4.473-2.826h-8.757c-1.281,0-2.515.507-3.428,1.384-.026.024-.053.048-.077.072-.026.024-.05.048-.076.072-.024.024-.05.048-.074.072-.026.024-.05.048-.077.072-.026.024-.05.048-.074.074-.026.022-.053.048-.076.072-.026.024-.05.048-.076.072-.024.024-.05.048-.074.072-.026.024-.05.048-.077.072-.026.024-.05.048-.074.072-.026.024-.053.048-.076.074-.026.022-.05.048-.077.072-.024.024-.05.048-.074.072-.026.024-.05.048-.076.072-.026.024-.05.048-.077.072-.024.024-.05.048-.074.072-.026.024-.05.048-.076.072-.024.024-.05.05-.074.074-.026.022-.05.048-.077.072-.026.024-.05.048-.077.072-.024.024-.05.048-.074.072-.026.024-.05.048-.076.072,0,.002-.002.002-.005.005l-3.968-14.322C24.338,1.496,22.377.005,20.164.005l-8.448-.005h-.002c-.772,0-1.528.184-2.207.524-.602.299-1.145.722-1.585,1.243-.022.026-.045.053-.067.079-.022.024-.045.05-.067.076-.022.026-.045.05-.067.077-.024.026-.045.053-.067.079-.024.026-.045.05-.069.076-.022.026-.045.05-.067.076-.022.026-.045.053-.067.079-.022.026-.045.05-.067.076-.024.026-.045.053-.067.076-.024.026-.045.053-.069.079-.022.026-.045.05-.067.076-.022.026-.045.053-.067.079-.021.024-.045.05-.067.077-.024.026-.045.05-.067.077-.024.026-.045.053-.069.079-.022.024-.045.05-.067.076-.022.026-.045.05-.067.077-.024.026-.045.053-.067.079-.024.024-.045.05-.067.076-.024.026-.045.05-.069.077-.022.026-.045.053-.067.079-.022.024-.045.05-.067.076-.022.026-.045.05-.067.076-.024.026-.045.053-.067.079-.024.024-.045.05-.069.076-.022.026-.045.05-.067.076-.022.026-.045.053-.067.079-.021.024-.045.05-.067.076-.024.026-.045.05-.067.076-.024.026-.045.053-.069.079-.022.026-.045.05-.067.077-.022.026-.045.053-.067.076-.022.026-.045.053-.067.079-.024.026-.045.05-.067.077-.024.026-.045.053-.069.076-.021.026-.045.053-.067.079-.022.026-.045.05-.067.077s-.045.053-.067.079c-.024.024-.045.05-.067.076-.024.026-.045.05-.069.076-.022.026-.045.053-.067.079-.022.024-.045.05-.067.076-.022.026-.045.05-.067.076-.024.026-.045.053-.067.079-.024.024-.045.05-.069.076-.022.026-.045.05-.067.076-.022.026-.045.053-.067.079-.022.024-.045.05-.067.077-.024.026-.045.05-.067.076-.024.026-.045.053-.069.079-.022.024-.045.05-.067.077-.021.026-.045.05-.067.076s-.045.053-.067.079c-.024.026-.045.05-.067.077-.024.026-.045.053-.069.079-.022.024-.045.05-.067.076s-.045.05-.067.076c-.022.026-.045.053-.067.079-.024.024-.045.05-.067.076-.024.026-.045.05-.069.076-.022.026-.045.053-.067.079-.022.024-.045.05-.067.076-.022.026-.045.05-.067.076-.024.026-.045.053-.067.079-.024.024-.045.05-.069.077-.022.026-.045.05-.067.076-.021.026-.045.053-.067.079-.022.024-.045.05-.067.077-.024.026-.045.05-.067.076-.024.026-.045.053-.069.079-.022.024-.045.05-.067.077-.022.026-.045.05-.067.077-.022.026-.045.053-.067.079-.024.024-.045.05-.067.076-.024.026-.045.05-.069.077-.022.026-.045.053-.067.079s-.045.05-.067.076c-.024.026-.045.053-.067.077-.024.026-.045.053-.069.079-.022.026-.045.053-.067.076-.022.026-.045.053-.067.079-.022.026-.045.05-.067.077-.024.026-.045.05-.067.076-.024.026-.045.053-.069.079-.022.026-.045.05-.067.077-.022.026-.045.053-.067.079-.022.024-.045.05-.067.076-.024.026-.045.05-.067.077-.024.026-.045.053-.069.077-.022.026-.045.053-.067.079-.021.026-.045.05-.067.076-.022.026-.045.053-.067.079-.024.024-.045.05-.067.076-.024.026-.045.05-.069.076-.022.026-.045.053-.067.079-.022.024-.045.05-.067.076-.022.026-.045.05-.067.076-.024.026-.045.053-.067.079-.024.024-.045.05-.069.077-.022.026-.043.05-.065.076-.079.086-.153.177-.225.27C.062,10.961-.228,12.524.183,13.956l11.883,41.452c.581,2.032,2.465,3.452,4.58,3.454l1.547.002c-.007.005-.014.012-.022.017-.024.019-.048.038-.072.06-.026.019-.05.038-.074.057-.024.019-.048.038-.074.057-.024.022-.048.041-.072.06-.024.019-.05.038-.074.057-.024.019-.048.038-.072.06-.024.019-.05.038-.074.057-.024.019-.048.038-.072.06-.026.019-.05.038-.074.057-.024.019-.048.038-.074.057-.024.022-.048.038-.072.06-.024.019-.05.038-.074.057-.024.019-.048.038-.072.06-.024.019-.05.038-.074.057-.024.019-.048.038-.072.06-.026.019-.05.038-.074.057-.024.019-.05.038-.074.06-.024.019-.048.038-.072.057-.024.019-.05.038-.074.057-.024.019-.048.038-.072.06-.024.019-.05.038-.074.057-.024.019-.048.038-.072.06-.024.019-.05.038-.074.057s-.048.038-.072.057c-.306.246-.583.528-.827.849-.911,1.198-1.2,2.718-.794,4.167l1.774,6.337c.574,2.051,2.462,3.483,4.592,3.483h26.114c.937,0,1.846-.28,2.615-.782.029-.019.057-.036.084-.053.029-.019.057-.036.086-.055.029-.017.057-.034.086-.053.029-.017.057-.033.086-.053.029-.019.057-.036.084-.053.029-.019.06-.036.086-.055.029-.017.057-.034.086-.053.029-.017.057-.033.086-.053s.057-.036.086-.053c.029-.019.057-.036.084-.055.029-.017.057-.033.086-.053.029-.017.057-.034.086-.053.029-.019.057-.036.086-.053.029-.019.057-.036.086-.055.029-.017.057-.033.084-.053.029-.017.057-.034.086-.053.029-.019.057-.036.086-.053.029-.019.057-.036.086-.055.029-.017.057-.034.086-.053.029-.017.057-.033.084-.053.029-.017.057-.036.086-.053.029-.019.057-.036.086-.055.029-.017.057-.033.086-.053.029-.017.057-.033.086-.053.026-.017.057-.036.084-.053.029-.019.057-.036.086-.055.029-.017.057-.034.086-.053.029-.017.057-.034.086-.053.029-.017.057-.036.086-.053.026-.019.057-.036.084-.055.029-.017.057-.033.086-.053.029-.017.057-.033.086-.053.029-.017.057-.033.086-.053.029-.019.057-.036.086-.055.026-.017.057-.034.084-.053.029-.017.057-.034.086-.053.029-.017.057-.036.086-.053.029-.019.057-.036.086-.053.007-.007.017-.012.026-.017.758,1.688,2.457,2.818,4.346,2.818h8.317c.865,0,1.692-.229,2.41-.65.031-.017.062-.036.093-.053.031-.019.062-.036.093-.055.031-.017.062-.033.091-.053.031-.017.062-.036.093-.053.031-.017.062-.036.093-.053.031-.019.062-.036.091-.055.031-.017.062-.034.093-.053.031-.017.062-.034.093-.053.031-.017.06-.036.091-.053.031-.017.062-.036.093-.053.031-.019.062-.036.093-.055.031-.017.06-.033.091-.053.031-.017.062-.036.093-.053.031-.017.062-.036.093-.053.031-.019.06-.036.091-.053.031-.019.062-.036.093-.055.031-.017.062-.034.093-.053.031-.017.06-.036.091-.053.031-.017.062-.036.093-.053.031-.019.062-.036.093-.055.031-.017.06-.033.091-.053.031-.017.062-.033.093-.053.031-.017.062-.036.091-.053.031-.017.062-.036.093-.053.031-.019.062-.036.093-.055.031-.017.062-.034.091-.053.031-.017.062-.036.093-.053.031-.017.062-.036.093-.053.031-.019.06-.036.091-.055.031-.017.062-.033.093-.053.031-.017.062-.033.093-.053.031-.017.06-.036.091-.053s.062-.036.093-.053c.031-.019.062-.036.093-.055.031-.017.06-.034.091-.053.031-.017.062-.036.093-.053.031-.017.062-.036.093-.053.031-.019.06-.036.091-.053.031-.019.062-.036.093-.055.031-.017.062-.033.093-.053.031-.017.06-.036.091-.053s.062-.036.093-.053c.031-.019.062-.036.091-.055.031-.017.062-.034.093-.053.031-.017.062-.033.093-.053.029-.017.06-.034.088-.053.693,1.841,2.472,3.093,4.463,3.093h8.152c.846,0,1.654-.218,2.362-.619.031-.019.065-.036.098-.055.033-.017.067-.034.1-.053.033-.017.067-.034.1-.053.031-.019.065-.036.098-.053.033-.019.067-.036.1-.055.033-.017.067-.033.1-.053.031-.017.065-.033.098-.053.033-.017.067-.033.1-.053s.067-.036.098-.053c.033-.019.067-.036.1-.055.033-.017.067-.034.1-.053.033-.017.067-.034.098-.053.033-.019.067-.036.1-.053.033-.019.067-.036.1-.055.033-.017.067-.033.098-.053.033-.017.067-.033.1-.053.033-.017.067-.033.1-.053s.067-.036.098-.053c.033-.019.067-.036.1-.055.033-.017.067-.034.1-.053.033-.017.067-.034.098-.053.033-.019.067-.034.1-.053.033-.019.067-.036.1-.053.033-.019.067-.036.098-.055.033-.017.067-.033.1-.053.033-.017.067-.033.1-.053s.067-.036.098-.053c.033-.019.067-.036.1-.055.033-.017.067-.034.1-.053.033-.017.067-.034.098-.053.033-.017.067-.034.1-.053.033-.019.067-.036.1-.053.033-.019.067-.036.098-.055.033-.017.067-.033.1-.053.033-.017.067-.033.1-.053s.067-.036.098-.053c.033-.019.067-.036.1-.055.033-.017.067-.034.1-.053.031-.017.067-.034.098-.053.033-.017.067-.034.1-.053.033-.019.067-.036.1-.053.033-.019.067-.036.098-.055.033-.017.067-.033.1-.053.033-.017.067-.033.1-.053s.067-.033.098-.053c.033-.019.067-.036.1-.053.033-.019.067-.036.1-.055.031-.017.067-.034.098-.053.033-.017.067-.034.1-.053.033-.019.067-.036.1-.053.031-.019.067-.036.098-.055.033-.017.067-.033.1-.053.033-.017.067-.033.1-.053.031-.017.067-.033.098-.053.033-.019.067-.036.1-.053.033-.019.067-.036.1-.055.031-.017.067-.034.098-.053.033-.017.067-.034.1-.053.033-.019.067-.036.1-.053.031-.019.067-.036.098-.055.033-.017.067-.033.1-.053.033-.017.067-.033.1-.053.031-.017.067-.033.098-.053.033-.019.067-.036.1-.053.033-.019.067-.036.1-.055.031-.017.067-.034.098-.053.033-.017.067-.034.1-.053.033-.019.067-.033.1-.053.031-.019.067-.036.098-.053.033-.019.067-.036.1-.055.033-.017.067-.033.098-.053.033-.017.069-.033.1-.053.033-.019.067-.036.1-.053.033-.019.067-.036.098-.055.033-.017.067-.034.1-.053.033-.017.067-.034.1-.053.033-.017.067-.033.098-.053.033-.019.069-.036.1-.053.033-.019.067-.036.1-.055.033-.017.067-.033.098-.053.033-.017.067-.033.1-.053.033-.019.067-.034.1-.053.033-.019.067-.036.1-.055.031-.017.065-.034.098-.053.033-.017.067-.034.1-.053.033-.017.067-.033.098-.053.033-.019.067-.036.1-.053.033-.019.067-.036.1-.055.033-.017.067-.033.098-.053.033-.017.067-.033.1-.053.033-.019.067-.034.1-.053.033-.019.067-.036.098-.055.033-.017.067-.034.1-.053.033-.017.067-.034.1-.053.033-.017.067-.033.098-.053.033-.019.067-.036.1-.053.033-.019.067-.036.1-.055.033-.017.067-.033.098-.053.033-.017.067-.033.1-.053.033-.017.067-.034.1-.053.61-.33,1.152-.791,1.59-1.365.944-1.243,1.245-2.816.827-4.32ZM22.963,48.27L10.633,5.257c-.206-.717.335-1.434,1.081-1.432l8.446.005c.504,0,.947.337,1.083.822l11.919,43.013c.198.717-.339,1.425-1.083,1.425l-8.035-.007c-.502,0-.942-.33-1.081-.813ZM95.079,65.953h-8.458c-.504,0-.947-.337-1.083-.822l-9.447-33.845c-.136-.485-.578-.822-1.083-.822h-6.823c-.743,0-1.281.71-1.083,1.425l9.06,32.641c.198.715-.339,1.425-1.083,1.425h-8.63c-.502,0-.942-.335-1.081-.818l-9.588-33.855c-.139-.483-.578-.818-1.083-.818h-5.981c-.746,0-1.284.715-1.081,1.432l9.271,32.626c.206.717-.335,1.432-1.081,1.432h-27.097c-.504,0-.947-.337-1.083-.822l-1.841-6.574c-.201-.72.342-1.43,1.088-1.427l15.135.067c.748.002,1.291-.712,1.083-1.432l-10.198-35.528c-.206-.717.335-1.432,1.081-1.432h8.757c.492,0,.928.32,1.073.794l.38,1.238c.146.471.581.794,1.073.794h38.105c.504,0,.949.337,1.083.822l11.695,42.076c.201.715-.337,1.425-1.081,1.425Z"/></g></svg>