<?xml version="1.0" encoding="UTF-8"?><svg id="Capa_2" xmlns="http://www.w3.org/2000/svg" viewBox="0 0 173.877 87.272"><g id="Capa_1-2"><path d="M160.515,0h-69.465l-1.729,2.126-19.785,24.344-5.948-9.476-1.697-2.696-13.363-5.763H0l6.281,9.047,29.569,42.592,4.572,6.589.013-.013,8.554,12.287,1.722,2.472,13.363,5.763h24.472l1.729-2.158,26.623-33.135,18.203-22.653,21.187-12.876,17.589-10.686-13.363-5.763ZM69.158,36.074l24.632-30.311h46.146l-36.285,22.045-34.492,8.266ZM72.417,75.746h-18.697l-13.132-18.863-.006.006L11.019,14.298h34.326l12.274,19.542-14.061,19.023,55.488-10.257-26.63,33.141Z"/></g></svg>